<svg xmlns="http://www.w3.org/2000/svg" xmlns:xlink="http://www.w3.org/1999/xlink" width="1080" zoomAndPan="magnify" viewBox="0 0 810 809.999993" height="1080" preserveAspectRatio="xMidYMid meet" version="1.0"><defs><g/><clipPath id="7544789ddb"><path d="M 15 0.28125 L 71 0.28125 L 71 55 L 15 55 Z M 15 0.28125 " clip-rule="nonzero"/></clipPath><clipPath id="9a8e62b35e"><rect x="0" width="82" y="0" height="644"/></clipPath></defs><g transform="matrix(1, 0, 0, 1, 364, 89)"><g clip-path="url(#9a8e62b35e)"><g clip-path="url(#7544789ddb)"><g fill="#14d921" fill-opacity="1"><g transform="translate(16.361371, 1.159696)"><g><path d="M 53.640625 0 L 53.640625 53.640625 L 41.152344 53.640625 L 41.152344 11.375 L 41.710938 11.375 L 41.710938 11.933594 L 16.152344 11.933594 L 16.152344 11.375 L 16.675781 11.179688 L 31.175781 49.851562 L 18.574219 49.851562 L -0.8125 -0.558594 L 53.640625 -0.558594 Z M 52.527344 0 L 53.085938 0 L 53.085938 0.558594 L 0 0.558594 L 0 0 L 0.519531 -0.199219 L 19.480469 49.09375 L 18.957031 49.292969 L 18.957031 48.734375 L 30.371094 48.734375 L 30.371094 49.292969 L 29.847656 49.488281 L 15.347656 10.816406 L 42.265625 10.816406 L 42.265625 53.085938 L 41.710938 53.085938 L 41.710938 52.527344 L 53.085938 52.527344 L 53.085938 53.085938 L 52.527344 53.085938 Z M 52.527344 0 "/></g></g></g></g><g fill="#14d921" fill-opacity="1"><g transform="translate(16.361371, 65.233193)"><g><path d="M 53.640625 0 L 53.640625 49.8125 L -0.757812 49.890625 L 14.792969 -0.558594 L 53.640625 -0.558594 Z M 52.527344 0 L 53.085938 0 L 53.085938 0.558594 L 15.203125 0.558594 L 15.203125 0 L 15.738281 0.164062 L 0.535156 49.496094 L 0 49.332031 L 0 48.773438 L 53.082031 48.695312 L 53.085938 49.253906 L 52.527344 49.253906 Z M 24.386719 11.492188 L 16.804688 38.070312 L 16.265625 37.917969 L 16.265625 37.359375 L 41.710938 37.359375 L 41.710938 37.917969 L 41.152344 37.917969 L 41.152344 11.375 L 41.710938 11.375 L 41.707031 11.933594 L 23.847656 11.894531 L 23.851562 11.335938 Z M 23.429688 10.777344 L 42.265625 10.816406 L 42.265625 38.476562 L 15.527344 38.476562 L 23.3125 11.183594 Z M 23.429688 10.777344 "/></g></g></g><g fill="#14d921" fill-opacity="1"><g transform="translate(16.361371, 129.344601)"><g><path d="M 53.640625 -3.792969 L 53.640625 49.851562 L 23.367188 49.851562 L 23.367188 17.785156 L 23.925781 17.785156 L 24.445312 17.984375 L 8.5 59.535156 L -0.628906 47.375 L 17.398438 -0.558594 L 36.164062 -0.558594 L 36.164062 37.917969 L 35.605469 37.917969 L 35.605469 37.359375 L 41.710938 37.359375 L 41.710938 37.917969 L 41.152344 37.917969 L 41.113281 -4.351562 L 53.640625 -4.351562 Z M 52.527344 -3.792969 L 53.085938 -3.792969 L 53.085938 -3.234375 L 41.671875 -3.234375 L 41.671875 -3.792969 L 42.230469 -3.792969 L 42.269531 38.476562 L 35.046875 38.476562 L 35.046875 0 L 35.605469 0 L 35.605469 0.558594 L 17.785156 0.558594 L 17.785156 0 L 18.304688 0.195312 L 0.523438 47.480469 L 0 47.28125 L 0.445312 46.949219 L 8.789062 58.058594 L 8.34375 58.394531 L 7.820312 58.191406 L 23.40625 17.582031 L 24.484375 17.785156 L 24.484375 49.292969 L 23.925781 49.292969 L 23.925781 48.734375 L 53.085938 48.734375 L 53.085938 49.292969 L 52.527344 49.292969 Z M 52.527344 -3.792969 "/></g></g></g><g fill="#14d921" fill-opacity="1"><g transform="translate(16.361371, 193.45601)"><g><path d="M 53.640625 0 L 53.640625 49.851562 L 26.074219 49.851562 L 19.207031 11.472656 L 19.753906 11.375 L 19.753906 11.933594 L 3.390625 11.933594 L -0.773438 -0.558594 L 30.820312 -0.558594 L 36.15625 37.839844 L 35.605469 37.917969 L 35.605469 37.359375 L 41.710938 37.359375 L 41.710938 37.917969 L 41.152344 37.917969 L 41.152344 -0.558594 L 53.640625 -0.558594 Z M 52.527344 0 L 53.085938 0 L 53.085938 0.558594 L 41.710938 0.558594 L 41.710938 0 L 42.265625 0 L 42.265625 38.476562 L 35.117188 38.476562 L 29.78125 0.078125 L 30.332031 0 L 30.332031 0.558594 L 0 0.558594 L 0 0 L 0.53125 -0.175781 L 4.320312 11.199219 L 3.792969 11.375 L 3.792969 10.816406 L 20.222656 10.816406 L 27.089844 49.195312 L 26.542969 49.292969 L 26.542969 48.734375 L 53.085938 48.734375 L 53.085938 49.292969 L 52.527344 49.292969 Z M 52.527344 0 "/></g></g></g><g fill="#14d921" fill-opacity="1"><g transform="translate(16.361371, 257.56741)"><g><path d="M 53.640625 0 L 53.640625 49.8125 L -0.757812 49.890625 L 14.792969 -0.558594 L 53.640625 -0.558594 Z M 52.527344 0 L 53.085938 0 L 53.085938 0.558594 L 15.203125 0.558594 L 15.203125 0 L 15.738281 0.164062 L 0.535156 49.496094 L 0 49.332031 L 0 48.773438 L 53.082031 48.695312 L 53.085938 49.253906 L 52.527344 49.253906 Z M 24.386719 11.492188 L 16.804688 38.070312 L 16.265625 37.917969 L 16.265625 37.359375 L 41.710938 37.359375 L 41.710938 37.917969 L 41.152344 37.917969 L 41.152344 11.375 L 41.710938 11.375 L 41.707031 11.933594 L 23.847656 11.894531 L 23.851562 11.335938 Z M 23.429688 10.777344 L 42.265625 10.816406 L 42.265625 38.476562 L 15.527344 38.476562 L 23.3125 11.183594 Z M 23.429688 10.777344 "/></g></g></g><g fill="#14d921" fill-opacity="1"><g transform="translate(16.361371, 321.678809)"><g><path d="M 53.640625 -3.792969 L 53.640625 49.851562 L 23.367188 49.851562 L 23.367188 17.785156 L 23.925781 17.785156 L 24.445312 17.984375 L 8.5 59.535156 L -0.628906 47.375 L 17.398438 -0.558594 L 36.164062 -0.558594 L 36.164062 37.917969 L 35.605469 37.917969 L 35.605469 37.359375 L 41.710938 37.359375 L 41.710938 37.917969 L 41.152344 37.917969 L 41.113281 -4.351562 L 53.640625 -4.351562 Z M 52.527344 -3.792969 L 53.085938 -3.792969 L 53.085938 -3.234375 L 41.671875 -3.234375 L 41.671875 -3.792969 L 42.230469 -3.792969 L 42.269531 38.476562 L 35.046875 38.476562 L 35.046875 0 L 35.605469 0 L 35.605469 0.558594 L 17.785156 0.558594 L 17.785156 0 L 18.304688 0.195312 L 0.523438 47.480469 L 0 47.28125 L 0.445312 46.949219 L 8.789062 58.058594 L 8.34375 58.394531 L 7.820312 58.191406 L 23.40625 17.582031 L 24.484375 17.785156 L 24.484375 49.292969 L 23.925781 49.292969 L 23.925781 48.734375 L 53.085938 48.734375 L 53.085938 49.292969 L 52.527344 49.292969 Z M 52.527344 -3.792969 "/></g></g></g><g fill="#14d921" fill-opacity="1"><g transform="translate(16.361371, 385.790246)"><g><path d="M -0.464844 48.984375 L 7.285156 37.359375 L 23.886719 37.359375 L 23.886719 37.917969 L 23.328125 37.917969 L 23.328125 11.375 L 23.886719 11.375 L 23.886719 11.933594 L 3.390625 11.933594 L -0.773438 -0.558594 L 53.640625 -0.558594 L 53.640625 49.851562 L -1.042969 49.851562 Z M 0.464844 49.601562 L 0 49.292969 L 0 48.734375 L 53.085938 48.734375 L 53.085938 49.292969 L 52.527344 49.292969 L 52.527344 0 L 53.085938 0 L 53.085938 0.558594 L 0 0.558594 L 0 0 L 0.53125 -0.175781 L 4.320312 11.199219 L 3.792969 11.375 L 3.792969 10.816406 L 24.445312 10.816406 L 24.445312 38.476562 L 7.582031 38.476562 L 7.582031 37.917969 L 8.046875 38.226562 Z M 41.710938 11.933594 L 35.378906 11.933594 L 35.378906 11.375 L 35.933594 11.375 L 35.933594 37.917969 L 35.378906 37.917969 L 35.378906 37.359375 L 41.710938 37.359375 L 41.710938 37.917969 L 41.152344 37.917969 L 41.152344 11.375 L 41.710938 11.375 Z M 42.265625 10.816406 L 42.265625 38.476562 L 34.820312 38.476562 L 34.820312 10.816406 Z M 42.265625 10.816406 "/></g></g></g><g fill="#14d921" fill-opacity="1"><g transform="translate(16.361371, 449.901646)"><g><path d="M 53.640625 0 L 53.640625 53.640625 L 41.152344 53.640625 L 41.152344 11.375 L 41.710938 11.375 L 41.710938 11.933594 L 16.152344 11.933594 L 16.152344 11.375 L 16.675781 11.179688 L 31.175781 49.851562 L 18.574219 49.851562 L -0.8125 -0.558594 L 53.640625 -0.558594 Z M 52.527344 0 L 53.085938 0 L 53.085938 0.558594 L 0 0.558594 L 0 0 L 0.519531 -0.199219 L 19.480469 49.09375 L 18.957031 49.292969 L 18.957031 48.734375 L 30.371094 48.734375 L 30.371094 49.292969 L 29.847656 49.488281 L 15.347656 10.816406 L 42.265625 10.816406 L 42.265625 53.085938 L 41.710938 53.085938 L 41.710938 52.527344 L 53.085938 52.527344 L 53.085938 53.085938 L 52.527344 53.085938 Z M 52.527344 0 "/></g></g></g><g fill="#14d921" fill-opacity="1"><g transform="translate(16.361371, 513.975123)"><g><path d="M -0.464844 48.984375 L 7.285156 37.359375 L 23.886719 37.359375 L 23.886719 37.917969 L 23.328125 37.917969 L 23.328125 11.375 L 23.886719 11.375 L 23.886719 11.933594 L 3.390625 11.933594 L -0.773438 -0.558594 L 53.640625 -0.558594 L 53.640625 49.851562 L -1.042969 49.851562 Z M 0.464844 49.601562 L 0 49.292969 L 0 48.734375 L 53.085938 48.734375 L 53.085938 49.292969 L 52.527344 49.292969 L 52.527344 0 L 53.085938 0 L 53.085938 0.558594 L 0 0.558594 L 0 0 L 0.53125 -0.175781 L 4.320312 11.199219 L 3.792969 11.375 L 3.792969 10.816406 L 24.445312 10.816406 L 24.445312 38.476562 L 7.582031 38.476562 L 7.582031 37.917969 L 8.046875 38.226562 Z M 41.710938 11.933594 L 35.378906 11.933594 L 35.378906 11.375 L 35.933594 11.375 L 35.933594 37.917969 L 35.378906 37.917969 L 35.378906 37.359375 L 41.710938 37.359375 L 41.710938 37.917969 L 41.152344 37.917969 L 41.152344 11.375 L 41.710938 11.375 Z M 42.265625 10.816406 L 42.265625 38.476562 L 34.820312 38.476562 L 34.820312 10.816406 Z M 42.265625 10.816406 "/></g></g></g><g fill="#14d921" fill-opacity="1"><g transform="translate(16.361371, 578.08656)"><g><path d="M 53.640625 0 L 53.640625 49.8125 L -0.757812 49.890625 L 14.792969 -0.558594 L 53.640625 -0.558594 Z M 52.527344 0 L 53.085938 0 L 53.085938 0.558594 L 15.203125 0.558594 L 15.203125 0 L 15.738281 0.164062 L 0.535156 49.496094 L 0 49.332031 L 0 48.773438 L 53.082031 48.695312 L 53.085938 49.253906 L 52.527344 49.253906 Z M 24.386719 11.492188 L 16.804688 38.070312 L 16.265625 37.917969 L 16.265625 37.359375 L 41.710938 37.359375 L 41.710938 37.917969 L 41.152344 37.917969 L 41.152344 11.375 L 41.710938 11.375 L 41.707031 11.933594 L 23.847656 11.894531 L 23.851562 11.335938 Z M 23.429688 10.777344 L 42.265625 10.816406 L 42.265625 38.476562 L 15.527344 38.476562 L 23.3125 11.183594 Z M 23.429688 10.777344 "/></g></g></g></g></g></svg>