<svg xmlns="http://www.w3.org/2000/svg" xmlns:xlink="http://www.w3.org/1999/xlink" width="1080" zoomAndPan="magnify" viewBox="0 0 810 809.999993" height="1080" preserveAspectRatio="xMidYMid meet" version="1.0"><defs><clipPath id="c710d9932c"><path d="M 146.601562 146.601562 L 663.351562 146.601562 L 663.351562 663.351562 L 146.601562 663.351562 Z M 146.601562 146.601562 " clip-rule="nonzero"/></clipPath></defs><g clip-path="url(#c710d9932c)"><path fill="#000000" d="M 663.351562 404.984375 C 663.351562 547.601562 547.570312 663.382812 404.953125 663.382812 C 262.339844 663.382812 146.554688 547.601562 146.554688 404.984375 C 146.554688 262.371094 262.339844 146.585938 404.953125 146.585938 C 547.570312 146.585938 663.351562 262.371094 663.351562 404.984375 Z M 663.351562 404.984375 " fill-opacity="1" fill-rule="evenodd"/></g><path fill="#ffffff" d="M 527.042969 292.960938 C 527.238281 293.03125 527.410156 293.175781 527.503906 293.371094 C 567.289062 351.90625 586.9375 417.9375 579.585938 493.949219 C 579.5625 494.265625 579.394531 494.554688 579.125 494.75 C 549 516.890625 519.8125 530.332031 491.023438 539.242188 C 490.5625 539.375 490.066406 539.214844 489.785156 538.8125 C 483.136719 529.566406 477.097656 519.796875 471.800781 509.554688 C 471.496094 508.945312 471.777344 508.226562 472.394531 507.984375 C 481.996094 504.363281 491.125 500.023438 499.894531 494.898438 C 500.589844 494.496094 500.636719 493.5 499.992188 493.023438 C 498.136719 491.640625 496.289062 490.183594 494.523438 488.734375 C 494.183594 488.46875 493.746094 488.410156 493.371094 488.589844 C 436.390625 514.921875 373.976562 514.921875 316.316406 488.589844 C 315.941406 488.421875 315.492188 488.480469 315.175781 488.746094 C 313.414062 490.195312 311.566406 491.640625 309.71875 493.023438 C 309.089844 493.5 309.136719 494.496094 309.828125 494.898438 C 318.605469 499.929688 327.730469 504.363281 337.316406 507.996094 C 337.933594 508.242188 338.226562 508.945312 337.925781 509.554688 C 332.746094 519.820312 326.707031 529.578125 319.925781 538.828125 C 319.636719 539.214844 319.148438 539.375 318.6875 539.242188 C 290.046875 530.332031 260.859375 516.890625 230.722656 494.75 C 230.46875 494.554688 230.296875 494.253906 230.257812 493.9375 C 224.121094 428.183594 236.640625 361.605469 282.308594 293.359375 C 282.414062 293.175781 282.582031 293.03125 282.78125 292.960938 C 305.25 282.628906 329.332031 275.035156 354.488281 270.707031 C 354.949219 270.636719 355.414062 270.839844 355.640625 271.253906 C 358.753906 276.761719 362.3125 283.820312 364.707031 289.59375 C 391.234375 285.546875 418.171875 285.546875 445.25 289.59375 C 447.65625 283.941406 451.082031 276.761719 454.183594 271.253906 C 454.410156 270.828125 454.871094 270.625 455.335938 270.707031 C 480.511719 275.058594 504.585938 282.640625 527.042969 292.960938 Z M 346.539062 453.898438 C 364.171875 453.898438 378.195312 437.953125 378.195312 418.378906 C 378.476562 398.945312 364.304688 382.871094 346.539062 382.871094 C 328.894531 382.871094 314.871094 398.800781 314.871094 418.378906 C 314.871094 437.953125 329.175781 453.898438 346.539062 453.898438 Z M 463.597656 453.898438 C 481.378906 453.898438 495.253906 437.953125 495.253906 418.378906 C 495.535156 398.945312 481.378906 382.871094 463.597656 382.871094 C 445.964844 382.871094 431.929688 398.800781 431.929688 418.378906 C 431.929688 437.953125 446.234375 453.898438 463.597656 453.898438 Z M 463.597656 453.898438 " fill-opacity="1" fill-rule="evenodd"/></svg>