<svg xmlns="http://www.w3.org/2000/svg" xmlns:xlink="http://www.w3.org/1999/xlink" width="1080" zoomAndPan="magnify" viewBox="0 0 810 809.999993" height="1080" preserveAspectRatio="xMidYMid meet" version="1.0"><defs><clipPath id="6e285654d6"><path d="M 121.363281 121.363281 L 688.363281 121.363281 L 688.363281 688.363281 L 121.363281 688.363281 Z M 121.363281 121.363281 " clip-rule="nonzero"/></clipPath></defs><g clip-path="url(#6e285654d6)"><path fill="#010101" d="M 688.734375 405.050781 C 688.734375 409.691406 688.621094 414.332031 688.390625 418.96875 C 688.164062 423.605469 687.824219 428.234375 687.367188 432.855469 C 686.914062 437.476562 686.34375 442.082031 685.664062 446.675781 C 684.980469 451.265625 684.1875 455.839844 683.28125 460.394531 C 682.378906 464.945312 681.359375 469.476562 680.230469 473.980469 C 679.105469 478.480469 677.867188 482.957031 676.519531 487.398438 C 675.171875 491.839844 673.714844 496.25 672.152344 500.621094 C 670.585938 504.992188 668.917969 509.320312 667.140625 513.609375 C 665.363281 517.898438 663.480469 522.144531 661.496094 526.339844 C 659.511719 530.535156 657.425781 534.683594 655.238281 538.777344 C 653.046875 542.871094 650.761719 546.910156 648.375 550.890625 C 645.988281 554.875 643.503906 558.796875 640.925781 562.65625 C 638.34375 566.515625 635.671875 570.3125 632.90625 574.039062 C 630.140625 577.769531 627.285156 581.429688 624.339844 585.015625 C 621.394531 588.605469 618.363281 592.121094 615.246094 595.558594 C 612.128906 599 608.925781 602.363281 605.644531 605.644531 C 602.363281 608.925781 599 612.128906 595.558594 615.246094 C 592.121094 618.363281 588.605469 621.394531 585.015625 624.339844 C 581.429688 627.285156 577.769531 630.140625 574.039062 632.90625 C 570.3125 635.671875 566.515625 638.34375 562.65625 640.925781 C 558.796875 643.503906 554.875 645.988281 550.890625 648.375 C 546.910156 650.761719 542.871094 653.046875 538.777344 655.238281 C 534.683594 657.425781 530.535156 659.511719 526.339844 661.496094 C 522.144531 663.480469 517.898438 665.363281 513.609375 667.140625 C 509.320312 668.917969 504.992188 670.585938 500.621094 672.152344 C 496.25 673.714844 491.839844 675.171875 487.398438 676.519531 C 482.957031 677.867188 478.480469 679.105469 473.980469 680.230469 C 469.476562 681.359375 464.945312 682.378906 460.394531 683.28125 C 455.839844 684.1875 451.265625 684.980469 446.675781 685.664062 C 442.082031 686.34375 437.476562 686.914062 432.855469 687.367188 C 428.234375 687.824219 423.605469 688.164062 418.96875 688.390625 C 414.332031 688.621094 409.691406 688.734375 405.050781 688.734375 C 400.40625 688.734375 395.765625 688.621094 391.128906 688.390625 C 386.492188 688.164062 381.863281 687.824219 377.242188 687.367188 C 372.621094 686.914062 368.015625 686.34375 363.421875 685.664062 C 358.832031 684.984375 354.257812 684.1875 349.703125 683.28125 C 345.152344 682.378906 340.621094 681.359375 336.117188 680.230469 C 331.617188 679.105469 327.140625 677.867188 322.699219 676.519531 C 318.257812 675.171875 313.847656 673.714844 309.476562 672.152344 C 305.105469 670.585938 300.777344 668.917969 296.488281 667.140625 C 292.199219 665.363281 287.953125 663.480469 283.757812 661.496094 C 279.5625 659.511719 275.414062 657.425781 271.320312 655.238281 C 267.226562 653.046875 263.1875 650.761719 259.207031 648.375 C 255.222656 645.988281 251.300781 643.503906 247.441406 640.925781 C 243.582031 638.34375 239.785156 635.671875 236.058594 632.90625 C 232.328125 630.140625 228.667969 627.285156 225.082031 624.339844 C 221.492188 621.394531 217.976562 618.363281 214.539062 615.246094 C 211.097656 612.128906 207.734375 608.925781 204.453125 605.644531 C 201.171875 602.363281 197.96875 599 194.851562 595.558594 C 191.734375 592.121094 188.703125 588.605469 185.757812 585.015625 C 182.8125 581.429688 179.957031 577.769531 177.191406 574.039062 C 174.425781 570.3125 171.753906 566.515625 169.171875 562.65625 C 166.59375 558.796875 164.109375 554.875 161.722656 550.890625 C 159.335938 546.910156 157.050781 542.871094 154.859375 538.777344 C 152.671875 534.683594 150.585938 530.535156 148.601562 526.339844 C 146.617188 522.144531 144.734375 517.898438 142.957031 513.609375 C 141.179688 509.320312 139.511719 504.992188 137.945312 500.621094 C 136.382812 496.25 134.925781 491.839844 133.578125 487.398438 C 132.230469 482.957031 130.992188 478.480469 129.867188 473.980469 C 128.738281 469.476562 127.71875 464.945312 126.816406 460.394531 C 125.910156 455.839844 125.117188 451.265625 124.433594 446.675781 C 123.753906 442.082031 123.183594 437.476562 122.730469 432.855469 C 122.273438 428.234375 121.933594 423.605469 121.707031 418.96875 C 121.476562 414.332031 121.363281 409.691406 121.363281 405.050781 C 121.363281 400.40625 121.476562 395.765625 121.707031 391.128906 C 121.933594 386.492188 122.273438 381.863281 122.730469 377.242188 C 123.183594 372.621094 123.753906 368.015625 124.433594 363.421875 C 125.117188 358.832031 125.910156 354.257812 126.816406 349.703125 C 127.71875 345.152344 128.738281 340.621094 129.867188 336.117188 C 130.992188 331.617188 132.230469 327.140625 133.578125 322.699219 C 134.925781 318.257812 136.382812 313.851562 137.945312 309.476562 C 139.511719 305.105469 141.179688 300.777344 142.957031 296.488281 C 144.734375 292.199219 146.617188 287.953125 148.601562 283.757812 C 150.585938 279.5625 152.671875 275.414062 154.859375 271.320312 C 157.050781 267.226562 159.335938 263.1875 161.722656 259.207031 C 164.109375 255.222656 166.59375 251.300781 169.171875 247.441406 C 171.753906 243.582031 174.425781 239.785156 177.191406 236.058594 C 179.957031 232.328125 182.8125 228.667969 185.757812 225.082031 C 188.703125 221.492188 191.734375 217.976562 194.851562 214.539062 C 197.96875 211.097656 201.171875 207.734375 204.453125 204.453125 C 207.734375 201.171875 211.097656 197.96875 214.539062 194.851562 C 217.976562 191.734375 221.492188 188.703125 225.082031 185.757812 C 228.667969 182.8125 232.328125 179.957031 236.058594 177.191406 C 239.785156 174.425781 243.582031 171.753906 247.441406 169.171875 C 251.300781 166.59375 255.222656 164.109375 259.207031 161.722656 C 263.1875 159.335938 267.226562 157.050781 271.320312 154.859375 C 275.414062 152.671875 279.5625 150.585938 283.757812 148.601562 C 287.953125 146.617188 292.199219 144.734375 296.488281 142.957031 C 300.777344 141.179688 305.105469 139.511719 309.476562 137.945312 C 313.847656 136.382812 318.257812 134.925781 322.699219 133.578125 C 327.140625 132.230469 331.617188 130.992188 336.117188 129.867188 C 340.621094 128.738281 345.152344 127.71875 349.703125 126.816406 C 354.257812 125.910156 358.832031 125.117188 363.421875 124.433594 C 368.015625 123.753906 372.621094 123.183594 377.242188 122.730469 C 381.863281 122.273438 386.492188 121.933594 391.128906 121.707031 C 395.765625 121.476562 400.40625 121.363281 405.050781 121.363281 C 409.691406 121.363281 414.332031 121.476562 418.96875 121.707031 C 423.605469 121.933594 428.234375 122.273438 432.855469 122.730469 C 437.476562 123.183594 442.082031 123.753906 446.675781 124.433594 C 451.265625 125.117188 455.839844 125.910156 460.394531 126.816406 C 464.945312 127.71875 469.476562 128.738281 473.980469 129.867188 C 478.480469 130.992188 482.957031 132.230469 487.398438 133.578125 C 491.839844 134.925781 496.25 136.382812 500.621094 137.945312 C 504.992188 139.511719 509.320312 141.179688 513.609375 142.957031 C 517.898438 144.734375 522.144531 146.617188 526.339844 148.601562 C 530.535156 150.585938 534.683594 152.671875 538.777344 154.859375 C 542.871094 157.050781 546.910156 159.335938 550.890625 161.722656 C 554.875 164.109375 558.796875 166.59375 562.65625 169.171875 C 566.515625 171.753906 570.3125 174.425781 574.039062 177.191406 C 577.769531 179.957031 581.429688 182.8125 585.015625 185.757812 C 588.605469 188.703125 592.121094 191.734375 595.558594 194.851562 C 599 197.96875 602.363281 201.171875 605.644531 204.453125 C 608.925781 207.734375 612.128906 211.097656 615.246094 214.539062 C 618.363281 217.976562 621.394531 221.492188 624.339844 225.082031 C 627.285156 228.667969 630.140625 232.328125 632.90625 236.058594 C 635.671875 239.785156 638.34375 243.582031 640.925781 247.441406 C 643.503906 251.300781 645.988281 255.222656 648.375 259.207031 C 650.761719 263.1875 653.046875 267.226562 655.238281 271.320312 C 657.425781 275.414062 659.511719 279.5625 661.496094 283.757812 C 663.480469 287.953125 665.363281 292.199219 667.140625 296.488281 C 668.917969 300.777344 670.585938 305.105469 672.152344 309.476562 C 673.714844 313.851562 675.171875 318.257812 676.519531 322.699219 C 677.867188 327.140625 679.105469 331.617188 680.230469 336.117188 C 681.359375 340.621094 682.378906 345.152344 683.28125 349.703125 C 684.1875 354.257812 684.980469 358.832031 685.664062 363.421875 C 686.34375 368.015625 686.914062 372.621094 687.367188 377.242188 C 687.824219 381.863281 688.164062 386.492188 688.390625 391.128906 C 688.621094 395.765625 688.734375 400.40625 688.734375 405.050781 Z M 688.734375 405.050781 " fill-opacity="1" fill-rule="nonzero"/></g><path fill="#25f4ee" d="M 367.390625 364.492188 L 367.390625 349.101562 C 362.226562 348.398438 356.988281 347.96875 351.648438 347.96875 C 287.238281 347.96875 234.84375 400.363281 234.84375 464.773438 C 234.84375 504.296875 254.589844 539.257812 284.71875 560.417969 C 265.273438 539.535156 253.734375 511.574219 253.734375 480.871094 C 253.734375 417.390625 304.265625 365.953125 367.390625 364.492188 Z M 367.390625 364.492188 " fill-opacity="1" fill-rule="nonzero"/><path fill="#25f4ee" d="M 370.136719 534.546875 C 398.878906 534.546875 422.65625 511.347656 423.714844 482.886719 L 423.964844 228.898438 L 470.011719 228.898438 C 470.011719 228.898438 469.9375 228.546875 469.9375 228.546875 C 468.980469 223.332031 468.449219 217.941406 468.449219 212.449219 L 405 212.449219 L 404.898438 466.789062 C 403.839844 495.277344 380.386719 518.125 351.648438 518.125 C 342.703125 518.125 334.316406 515.882812 326.910156 512.003906 C 336.609375 525.429688 352.351562 534.574219 370.160156 534.574219 Z M 370.136719 534.546875 " fill-opacity="1" fill-rule="nonzero"/><path fill="#25f4ee" d="M 556.765625 315.601562 L 556.765625 300.6875 C 539.03125 300.6875 522.53125 295.425781 508.679688 286.378906 C 520.996094 300.539062 537.746094 311.519531 556.765625 315.574219 Z M 556.765625 315.601562 " fill-opacity="1" fill-rule="nonzero"/><path fill="#fe2c55" d="M 508.679688 286.40625 C 495.175781 270.890625 486.964844 250.660156 486.964844 228.519531 L 469.683594 228.519531 C 474.167969 252.703125 488.804688 273.457031 508.679688 286.40625 Z M 508.679688 286.40625 " fill-opacity="1" fill-rule="nonzero"/><path fill="#fe2c55" d="M 351.648438 410.917969 C 322.226562 410.917969 297.941406 435.328125 297.941406 464.75 C 297.941406 485.226562 309.90625 503.035156 326.886719 511.980469 C 320.5625 503.210938 316.785156 492.480469 316.785156 480.871094 C 316.785156 451.449219 340.714844 427.519531 370.136719 427.519531 C 375.628906 427.519531 380.890625 428.425781 385.878906 429.988281 L 385.878906 365.199219 C 380.714844 364.492188 375.476562 364.066406 370.136719 364.066406 C 369.203125 364.066406 368.296875 364.117188 367.390625 364.140625 L 367.136719 364.140625 C 367.136719 364.140625 366.960938 413.183594 366.960938 413.183594 C 361.976562 411.625 357.136719 410.941406 351.648438 410.941406 Z M 351.648438 410.917969 " fill-opacity="1" fill-rule="nonzero"/><path fill="#fe2c55" d="M 556.765625 314.84375 L 556.464844 314.792969 L 556.464844 363.789062 C 523.539062 363.789062 492.960938 352.957031 468.074219 335.097656 L 468.074219 464.75 C 468.074219 529.15625 416.058594 581.226562 351.648438 581.226562 C 326.757812 581.226562 303.6875 573.691406 284.691406 560.367188 C 306.027344 583.265625 336.433594 597.648438 370.136719 597.648438 C 434.546875 597.648438 486.941406 545.253906 486.941406 480.84375 L 486.941406 351.875 C 511.828125 369.734375 542.332031 380.261719 575.230469 380.261719 L 575.230469 316.808594 C 568.882812 316.808594 562.710938 316.128906 556.742188 314.84375 Z M 556.765625 314.84375 " fill-opacity="1" fill-rule="nonzero"/><path fill="#ffffff" d="M 468.449219 464.75 L 468.449219 335.777344 C 493.339844 353.636719 523.84375 364.167969 556.742188 364.167969 L 556.742188 314.84375 C 537.722656 310.765625 520.996094 300.5625 508.652344 286.40625 C 488.777344 273.433594 474.421875 252.703125 469.9375 228.519531 L 423.460938 228.519531 L 423.363281 482.859375 C 422.304688 511.347656 398.851562 534.195312 370.109375 534.195312 C 352.300781 534.195312 336.558594 525.40625 326.859375 511.953125 C 309.882812 503.011719 298.269531 485.226562 298.269531 464.722656 C 298.269531 435.300781 322.199219 411.371094 351.621094 411.371094 C 357.113281 411.371094 362.378906 412.277344 367.367188 413.839844 L 367.367188 364.089844 C 304.214844 365.578125 253.308594 417.339844 253.308594 480.84375 C 253.308594 511.550781 265.246094 539.511719 284.667969 560.394531 C 303.636719 573.71875 326.710938 581.550781 351.621094 581.550781 C 416.03125 581.550781 468.425781 529.15625 468.425781 464.75 Z M 468.449219 464.75 " fill-opacity="1" fill-rule="nonzero"/></svg>