<svg xmlns="http://www.w3.org/2000/svg" xmlns:xlink="http://www.w3.org/1999/xlink" width="1080" zoomAndPan="magnify" viewBox="0 0 810 809.999993" height="1080" preserveAspectRatio="xMidYMid meet" version="1.0"><defs><clipPath id="688741739a"><path d="M 164 239.355469 L 638 239.355469 L 638 570.855469 L 164 570.855469 Z M 164 239.355469 " clip-rule="nonzero"/></clipPath></defs><g clip-path="url(#688741739a)"><path fill="#000000" d="M 216.105469 560.636719 C 195.710938 555.101562 179.84375 538.878906 173.957031 518.839844 C 164.277344 481.871094 164.277344 404.820312 164.277344 404.820312 C 164.277344 404.820312 164.277344 327.796875 173.957031 291.183594 C 179.816406 270.789062 195.710938 254.894531 216.105469 249.359375 C 252.722656 239.355469 400.574219 239.355469 400.574219 239.355469 C 400.574219 239.355469 548.785156 239.355469 585.398438 249.359375 C 606.121094 254.894531 621.664062 270.789062 627.195312 291.15625 C 637.203125 327.773438 637.203125 404.820312 637.203125 404.820312 C 637.203125 404.820312 637.203125 481.871094 627.195312 518.8125 C 621.664062 538.851562 606.121094 555.078125 585.398438 560.609375 C 548.785156 570.617188 400.574219 570.617188 400.574219 570.617188 C 400.574219 570.617188 252.722656 570.617188 216.105469 560.609375 Z M 353.597656 476.007812 L 476.234375 404.847656 L 353.597656 334.015625 Z M 353.597656 476.007812 " fill-opacity="1" fill-rule="nonzero"/></g><path fill="#ffffff" d="M 353.597656 476.007812 L 476.234375 404.820312 L 353.597656 334.015625 Z M 353.597656 476.007812 " fill-opacity="1" fill-rule="nonzero"/></svg>