<svg xmlns="http://www.w3.org/2000/svg" xmlns:xlink="http://www.w3.org/1999/xlink" width="1080" zoomAndPan="magnify" viewBox="0 0 810 809.999993" height="1080" preserveAspectRatio="xMidYMid meet" version="1.0"><defs><clipPath id="607750ff0d"><path d="M 571 352 L 776 352 L 776 446.929688 L 571 446.929688 Z M 571 352 " clip-rule="nonzero"/></clipPath></defs><path fill="#000000" d="M 74.707031 393.480469 L 128.5 393.480469 L 128.433594 405.195312 L 86.167969 405.195312 L 86.019531 431.515625 L 124.527344 416.875 L 124.457031 428.628906 L 74.398438 448.15625 L 74.707031 393.488281 Z M 74.707031 393.480469 " fill-opacity="1" fill-rule="nonzero"/><path fill="#000000" d="M 128.460938 393.480469 L 178.375 393.480469 L 178.144531 448.148438 L 128.246094 432.488281 Z M 139.78125 423.589844 L 166.671875 431.394531 L 166.820312 405.195312 L 139.925781 405.195312 Z M 139.78125 423.589844 " fill-opacity="1" fill-rule="nonzero"/><path fill="#000000" d="M 178.414062 393.480469 L 232.207031 393.480469 L 232.042969 423.507812 L 200.113281 423.507812 L 241.175781 439.554688 L 229.875 448.148438 L 182.0625 429.835938 L 182.164062 411.484375 L 220.589844 411.484375 L 220.625 405.195312 L 178.363281 405.234375 L 178.429688 393.484375 Z M 178.414062 393.480469 " fill-opacity="1" fill-rule="nonzero"/><path fill="#000000" d="M 236.046875 393.480469 L 286 393.480469 L 285.84375 420.816406 L 247.382812 427.804688 L 247.292969 444.242188 L 235.746094 448.148438 L 235.914062 416.910156 L 274.371094 411.484375 L 274.402344 405.195312 L 235.976562 405.195312 Z M 236.046875 393.480469 " fill-opacity="1" fill-rule="nonzero"/><path fill="#000000" d="M 289.84375 393.480469 L 339.753906 393.480469 L 339.527344 448.148438 L 289.625 432.488281 Z M 301.164062 423.589844 L 328.050781 431.394531 L 328.199219 405.195312 L 301.304688 405.195312 Z M 301.164062 423.589844 " fill-opacity="1" fill-rule="nonzero"/><path fill="#000000" d="M 339.792969 393.480469 L 393.589844 393.480469 L 393.421875 423.507812 L 361.496094 423.507812 L 402.558594 439.554688 L 391.253906 448.148438 L 343.445312 429.835938 L 343.546875 411.484375 L 381.972656 411.484375 L 382.007812 405.195312 L 339.742188 405.234375 L 339.8125 393.484375 Z M 339.792969 393.480469 " fill-opacity="1" fill-rule="nonzero"/><path fill="#000000" d="M 447.070312 448.148438 L 435.585938 440.34375 L 435.675781 423.550781 L 408.78125 423.550781 L 408.667969 444.242188 L 397.121094 448.148438 L 397.425781 393.480469 L 447.378906 393.480469 Z M 408.890625 405.195312 L 408.855469 411.714844 L 435.75 411.714844 L 435.785156 405.195312 Z M 408.890625 405.195312 " fill-opacity="1" fill-rule="nonzero"/><path fill="#000000" d="M 451.222656 393.480469 L 505.019531 393.480469 L 504.949219 405.195312 L 462.683594 405.195312 L 462.539062 431.515625 L 501.042969 416.875 L 500.976562 428.628906 L 450.914062 448.15625 L 451.222656 393.488281 Z M 451.222656 393.480469 " fill-opacity="1" fill-rule="nonzero"/><path fill="#000000" d="M 554.621094 448.148438 L 543.136719 440.34375 L 543.226562 423.550781 L 516.332031 423.550781 L 516.21875 444.242188 L 504.671875 448.148438 L 504.976562 393.480469 L 554.929688 393.480469 Z M 516.433594 405.195312 L 516.402344 411.714844 L 543.296875 411.714844 L 543.328125 405.195312 Z M 516.433594 405.195312 " fill-opacity="1" fill-rule="nonzero"/><path fill="#000000" d="M 558.769531 393.480469 L 608.679688 393.480469 L 608.453125 448.148438 L 558.550781 432.488281 Z M 570.089844 423.589844 L 596.976562 431.394531 L 597.125 405.195312 L 570.230469 405.195312 Z M 570.089844 423.589844 " fill-opacity="1" fill-rule="nonzero"/><g clip-path="url(#607750ff0d)"><path fill="#000000" d="M 700.484375 359.984375 L 699.476562 376.820312 C 699.402344 378 700.9375 378.515625 701.59375 377.53125 L 705.800781 368.421875 L 761.804688 367.613281 L 730.089844 437.984375 L 713.464844 438.234375 L 724.777344 412.839844 L 693.976562 383.511719 L 673.628906 386.300781 C 675.582031 383.152344 675.898438 382.210938 676.171875 378.445312 C 677.132812 365.0625 667.191406 353.214844 653.816406 352.183594 C 640.332031 351.144531 628.617188 361.304688 627.699219 374.769531 C 627.199219 382.121094 631.042969 390.777344 635.914062 395.570312 L 571.761719 424.683594 L 684.097656 420.078125 L 683.789062 424.621094 L 614.257812 447.269531 L 734.957031 445.292969 L 775.777344 360.402344 L 700.484375 359.980469 Z M 630.746094 412.828125 C 628.550781 412.679688 626.890625 410.773438 627.035156 408.578125 C 627.183594 406.378906 629.089844 404.722656 631.285156 404.871094 C 633.488281 405.023438 635.140625 406.921875 634.992188 409.121094 C 634.847656 411.3125 632.945312 412.976562 630.746094 412.828125 Z M 630.746094 412.828125 " fill-opacity="1" fill-rule="nonzero"/></g></svg>