<svg xmlns="http://www.w3.org/2000/svg" xmlns:xlink="http://www.w3.org/1999/xlink" width="1080" zoomAndPan="magnify" viewBox="0 0 810 809.999993" height="1080" preserveAspectRatio="xMidYMid meet" version="1.0"><path fill="#000000" d="M 76.890625 368.757812 L 143.019531 368.757812 L 142.9375 383.15625 L 90.980469 383.15625 L 90.800781 415.511719 L 138.132812 397.515625 L 138.050781 411.960938 L 76.511719 435.964844 L 76.890625 368.765625 Z M 76.890625 368.757812 " fill-opacity="1" fill-rule="nonzero"/><path fill="#000000" d="M 142.972656 368.757812 L 204.324219 368.757812 L 204.046875 435.957031 L 142.707031 416.707031 Z M 156.886719 405.765625 L 189.941406 415.363281 L 190.125 383.15625 L 157.0625 383.15625 Z M 156.886719 405.765625 " fill-opacity="1" fill-rule="nonzero"/><path fill="#000000" d="M 204.375 368.757812 L 270.503906 368.757812 L 270.300781 405.667969 L 231.050781 405.667969 L 281.527344 425.394531 L 267.632812 435.957031 L 208.863281 413.445312 L 208.988281 390.886719 L 256.222656 390.886719 L 256.265625 383.15625 L 204.3125 383.207031 L 204.394531 368.757812 Z M 204.375 368.757812 " fill-opacity="1" fill-rule="nonzero"/><path fill="#000000" d="M 275.222656 368.757812 L 336.625 368.757812 L 336.4375 402.359375 L 289.160156 410.945312 L 289.046875 431.15625 L 274.851562 435.957031 L 275.0625 397.554688 L 322.332031 390.882812 L 322.375 383.15625 L 275.136719 383.15625 Z M 275.222656 368.757812 " fill-opacity="1" fill-rule="nonzero"/><path fill="#000000" d="M 341.351562 368.757812 L 402.707031 368.757812 L 402.425781 435.957031 L 341.085938 416.707031 Z M 355.265625 405.765625 L 388.320312 415.363281 L 388.503906 383.15625 L 355.441406 383.15625 Z M 355.265625 405.765625 " fill-opacity="1" fill-rule="nonzero"/><path fill="#000000" d="M 402.753906 368.757812 L 468.882812 368.757812 L 468.679688 405.667969 L 429.433594 405.667969 L 479.910156 425.394531 L 466.015625 435.957031 L 407.242188 413.445312 L 407.367188 390.886719 L 454.605469 390.886719 L 454.644531 383.15625 L 402.691406 383.207031 L 402.777344 368.757812 Z M 402.753906 368.757812 " fill-opacity="1" fill-rule="nonzero"/><path fill="#000000" d="M 534.628906 435.957031 L 520.507812 426.359375 L 520.621094 405.71875 L 487.558594 405.71875 L 487.421875 431.15625 L 473.222656 435.957031 L 473.601562 368.757812 L 535.007812 368.757812 Z M 487.691406 383.15625 L 487.652344 391.171875 L 520.710938 391.171875 L 520.753906 383.15625 Z M 487.691406 383.15625 " fill-opacity="1" fill-rule="nonzero"/><path fill="#000000" d="M 539.730469 368.757812 L 605.859375 368.757812 L 605.777344 383.15625 L 553.820312 383.15625 L 553.640625 415.511719 L 600.972656 397.515625 L 600.890625 411.960938 L 539.351562 435.964844 L 539.730469 368.765625 Z M 539.730469 368.757812 " fill-opacity="1" fill-rule="nonzero"/><path fill="#000000" d="M 666.835938 435.957031 L 652.71875 426.359375 L 652.828125 405.71875 L 619.769531 405.71875 L 619.628906 431.15625 L 605.433594 435.957031 L 605.8125 368.757812 L 667.214844 368.757812 Z M 619.894531 383.15625 L 619.851562 391.171875 L 652.914062 391.171875 L 652.957031 383.15625 Z M 619.894531 383.15625 " fill-opacity="1" fill-rule="nonzero"/><path fill="#000000" d="M 671.933594 368.757812 L 733.289062 368.757812 L 733.007812 435.957031 L 671.667969 416.707031 Z M 685.847656 405.765625 L 718.902344 415.363281 L 719.085938 383.15625 L 686.023438 383.15625 Z M 685.847656 405.765625 " fill-opacity="1" fill-rule="nonzero"/></svg>