<svg xmlns="http://www.w3.org/2000/svg" xmlns:xlink="http://www.w3.org/1999/xlink" width="1080" zoomAndPan="magnify" viewBox="0 0 810 809.999993" height="1080" preserveAspectRatio="xMidYMid meet" version="1.0"><defs><clipPath id="60671e2979"><path d="M 77 235 L 731 235 L 731 572 L 77 572 Z M 77 235 " clip-rule="nonzero"/></clipPath><clipPath id="8a8ff51c9d"><path d="M -17.503906 1.550781 L 808.777344 -17.511719 L 827.835938 808.769531 L 1.558594 827.828125 Z M -17.503906 1.550781 " clip-rule="nonzero"/></clipPath><clipPath id="bf97b18491"><path d="M -17.503906 1.550781 L 808.777344 -17.511719 L 827.835938 808.769531 L 1.558594 827.828125 Z M -17.503906 1.550781 " clip-rule="nonzero"/></clipPath></defs><g clip-path="url(#60671e2979)"><g clip-path="url(#8a8ff51c9d)"><g clip-path="url(#bf97b18491)"><path fill="#010101" d="M 481.832031 241.140625 L 483.742188 293.769531 C 483.867188 297.683594 489.09375 298.910156 490.949219 295.46875 L 499.339844 267.769531 L 686.839844 263.441406 L 603.835938 505.148438 L 549.101562 511.0625 L 578.632812 423.878906 L 468.101562 336.652344 L 401.886719 352.082031 C 407.367188 341.089844 408.117188 337.90625 407.851562 325.398438 C 406.921875 280.996094 370.523438 244.976562 326.121094 245.679688 C 281.34375 246.390625 245.839844 283.457031 246.945312 328.132812 C 247.546875 352.527344 262.882812 379.890625 280.390625 394.191406 L 77.824219 509.824219 L 446.75 460.222656 L 447.121094 475.296875 L 224.832031 571.265625 L 622.125 527.78125 L 730.6875 235.421875 L 481.832031 241.160156 Z M 268.632812 452.648438 C 261.351562 452.832031 255.289062 447.0625 255.113281 439.773438 C 254.929688 432.480469 260.699219 426.429688 267.988281 426.253906 C 275.28125 426.070312 281.328125 431.824219 281.503906 439.128906 C 281.6875 446.40625 275.9375 452.472656 268.632812 452.648438 Z M 268.632812 452.648438 " fill-opacity="1" fill-rule="nonzero"/></g></g></g></svg>