<svg xmlns="http://www.w3.org/2000/svg" xmlns:xlink="http://www.w3.org/1999/xlink" width="1080" zoomAndPan="magnify" viewBox="0 0 810 809.999993" height="1080" preserveAspectRatio="xMidYMid meet" version="1.0"><defs><g/><clipPath id="b423befd3b"><path d="M 154.367188 325.640625 L 655.632812 325.640625 L 655.632812 484.359375 L 154.367188 484.359375 Z M 154.367188 325.640625 " clip-rule="nonzero"/></clipPath><clipPath id="2e8e2e7e19"><path d="M 0.367188 0.640625 L 501.632812 0.640625 L 501.632812 159.355469 L 0.367188 159.355469 Z M 0.367188 0.640625 " clip-rule="nonzero"/></clipPath><radialGradient gradientTransform="matrix(1, 0, 0, 1, 0.364966, 0.642504)" gradientUnits="userSpaceOnUse" r="525.793389" cx="0" id="5ce5f17f76" cy="0" fx="0" fy="0"><stop stop-opacity="1" stop-color="rgb(2.74353%, 23.094177%, 84.933472%)" offset="0"/><stop stop-opacity="1" stop-color="rgb(2.732849%, 23.002625%, 84.60083%)" offset="0.00390625"/><stop stop-opacity="1" stop-color="rgb(2.722168%, 22.912598%, 84.268188%)" offset="0.0078125"/><stop stop-opacity="1" stop-color="rgb(2.711487%, 22.822571%, 83.935547%)" offset="0.0117188"/><stop stop-opacity="1" stop-color="rgb(2.700806%, 22.732544%, 83.602905%)" offset="0.015625"/><stop stop-opacity="1" stop-color="rgb(2.690125%, 22.640991%, 83.270264%)" offset="0.0195312"/><stop stop-opacity="1" stop-color="rgb(2.679443%, 22.550964%, 82.939148%)" offset="0.0234375"/><stop stop-opacity="1" stop-color="rgb(2.667236%, 22.460938%, 82.606506%)" offset="0.0273438"/><stop stop-opacity="1" stop-color="rgb(2.656555%, 22.370911%, 82.273865%)" offset="0.03125"/><stop stop-opacity="1" stop-color="rgb(2.645874%, 22.279358%, 81.941223%)" offset="0.0351562"/><stop stop-opacity="1" stop-color="rgb(2.635193%, 22.189331%, 81.608582%)" offset="0.0390625"/><stop stop-opacity="1" stop-color="rgb(2.624512%, 22.099304%, 81.27594%)" offset="0.0429688"/><stop stop-opacity="1" stop-color="rgb(2.613831%, 22.009277%, 80.943298%)" offset="0.046875"/><stop stop-opacity="1" stop-color="rgb(2.603149%, 21.917725%, 80.612183%)" offset="0.0507812"/><stop stop-opacity="1" stop-color="rgb(2.592468%, 21.827698%, 80.279541%)" offset="0.0546875"/><stop stop-opacity="1" stop-color="rgb(2.581787%, 21.737671%, 79.946899%)" offset="0.0585938"/><stop stop-opacity="1" stop-color="rgb(2.571106%, 21.647644%, 79.614258%)" offset="0.0625"/><stop stop-opacity="1" stop-color="rgb(2.560425%, 21.556091%, 79.281616%)" offset="0.0664062"/><stop stop-opacity="1" stop-color="rgb(2.549744%, 21.466064%, 78.948975%)" offset="0.0703125"/><stop stop-opacity="1" stop-color="rgb(2.539062%, 21.376038%, 78.616333%)" offset="0.0742188"/><stop stop-opacity="1" stop-color="rgb(2.528381%, 21.286011%, 78.285217%)" offset="0.078125"/><stop stop-opacity="1" stop-color="rgb(2.5177%, 21.195984%, 77.952576%)" offset="0.0820312"/><stop stop-opacity="1" stop-color="rgb(2.507019%, 21.104431%, 77.619934%)" offset="0.0859375"/><stop stop-opacity="1" stop-color="rgb(2.496338%, 21.014404%, 77.287292%)" offset="0.0898438"/><stop stop-opacity="1" stop-color="rgb(2.485657%, 20.924377%, 76.954651%)" offset="0.09375"/><stop stop-opacity="1" stop-color="rgb(2.474976%, 20.834351%, 76.622009%)" offset="0.0976562"/><stop stop-opacity="1" stop-color="rgb(2.464294%, 20.742798%, 76.289368%)" offset="0.101562"/><stop stop-opacity="1" stop-color="rgb(2.453613%, 20.652771%, 75.958252%)" offset="0.105469"/><stop stop-opacity="1" stop-color="rgb(2.442932%, 20.562744%, 75.62561%)" offset="0.109375"/><stop stop-opacity="1" stop-color="rgb(2.432251%, 20.472717%, 75.292969%)" offset="0.113281"/><stop stop-opacity="1" stop-color="rgb(2.42157%, 20.381165%, 74.960327%)" offset="0.117188"/><stop stop-opacity="1" stop-color="rgb(2.410889%, 20.291138%, 74.627686%)" offset="0.121094"/><stop stop-opacity="1" stop-color="rgb(2.398682%, 20.201111%, 74.295044%)" offset="0.125"/><stop stop-opacity="1" stop-color="rgb(2.388%, 20.111084%, 73.962402%)" offset="0.128906"/><stop stop-opacity="1" stop-color="rgb(2.377319%, 20.019531%, 73.631287%)" offset="0.132812"/><stop stop-opacity="1" stop-color="rgb(2.366638%, 19.929504%, 73.298645%)" offset="0.136719"/><stop stop-opacity="1" stop-color="rgb(2.355957%, 19.839478%, 72.966003%)" offset="0.140625"/><stop stop-opacity="1" stop-color="rgb(2.345276%, 19.749451%, 72.633362%)" offset="0.144531"/><stop stop-opacity="1" stop-color="rgb(2.334595%, 19.657898%, 72.30072%)" offset="0.148438"/><stop stop-opacity="1" stop-color="rgb(2.323914%, 19.567871%, 71.968079%)" offset="0.152344"/><stop stop-opacity="1" stop-color="rgb(2.313232%, 19.477844%, 71.635437%)" offset="0.15625"/><stop stop-opacity="1" stop-color="rgb(2.302551%, 19.387817%, 71.304321%)" offset="0.160156"/><stop stop-opacity="1" stop-color="rgb(2.29187%, 19.297791%, 70.97168%)" offset="0.164062"/><stop stop-opacity="1" stop-color="rgb(2.281189%, 19.206238%, 70.639038%)" offset="0.167969"/><stop stop-opacity="1" stop-color="rgb(2.270508%, 19.116211%, 70.306396%)" offset="0.171875"/><stop stop-opacity="1" stop-color="rgb(2.259827%, 19.026184%, 69.973755%)" offset="0.175781"/><stop stop-opacity="1" stop-color="rgb(2.249146%, 18.936157%, 69.641113%)" offset="0.179688"/><stop stop-opacity="1" stop-color="rgb(2.238464%, 18.844604%, 69.308472%)" offset="0.183594"/><stop stop-opacity="1" stop-color="rgb(2.227783%, 18.754578%, 68.977356%)" offset="0.1875"/><stop stop-opacity="1" stop-color="rgb(2.217102%, 18.664551%, 68.644714%)" offset="0.191406"/><stop stop-opacity="1" stop-color="rgb(2.206421%, 18.574524%, 68.312073%)" offset="0.195312"/><stop stop-opacity="1" stop-color="rgb(2.19574%, 18.482971%, 67.979431%)" offset="0.199219"/><stop stop-opacity="1" stop-color="rgb(2.185059%, 18.392944%, 67.64679%)" offset="0.203125"/><stop stop-opacity="1" stop-color="rgb(2.174377%, 18.302917%, 67.314148%)" offset="0.207031"/><stop stop-opacity="1" stop-color="rgb(2.163696%, 18.212891%, 66.981506%)" offset="0.210938"/><stop stop-opacity="1" stop-color="rgb(2.153015%, 18.121338%, 66.650391%)" offset="0.214844"/><stop stop-opacity="1" stop-color="rgb(2.142334%, 18.031311%, 66.317749%)" offset="0.21875"/><stop stop-opacity="1" stop-color="rgb(2.130127%, 17.941284%, 65.985107%)" offset="0.222656"/><stop stop-opacity="1" stop-color="rgb(2.119446%, 17.851257%, 65.652466%)" offset="0.226562"/><stop stop-opacity="1" stop-color="rgb(2.108765%, 17.759705%, 65.319824%)" offset="0.230469"/><stop stop-opacity="1" stop-color="rgb(2.098083%, 17.669678%, 64.987183%)" offset="0.234375"/><stop stop-opacity="1" stop-color="rgb(2.087402%, 17.579651%, 64.654541%)" offset="0.238281"/><stop stop-opacity="1" stop-color="rgb(2.076721%, 17.489624%, 64.323425%)" offset="0.242188"/><stop stop-opacity="1" stop-color="rgb(2.06604%, 17.399597%, 63.990784%)" offset="0.246094"/><stop stop-opacity="1" stop-color="rgb(2.055359%, 17.308044%, 63.658142%)" offset="0.25"/><stop stop-opacity="1" stop-color="rgb(2.044678%, 17.218018%, 63.3255%)" offset="0.253906"/><stop stop-opacity="1" stop-color="rgb(2.033997%, 17.127991%, 62.992859%)" offset="0.257812"/><stop stop-opacity="1" stop-color="rgb(2.023315%, 17.037964%, 62.660217%)" offset="0.261719"/><stop stop-opacity="1" stop-color="rgb(2.012634%, 16.946411%, 62.327576%)" offset="0.265625"/><stop stop-opacity="1" stop-color="rgb(2.001953%, 16.856384%, 61.99646%)" offset="0.269531"/><stop stop-opacity="1" stop-color="rgb(1.991272%, 16.766357%, 61.663818%)" offset="0.273438"/><stop stop-opacity="1" stop-color="rgb(1.980591%, 16.676331%, 61.331177%)" offset="0.277344"/><stop stop-opacity="1" stop-color="rgb(1.96991%, 16.584778%, 60.998535%)" offset="0.28125"/><stop stop-opacity="1" stop-color="rgb(1.959229%, 16.494751%, 60.665894%)" offset="0.285156"/><stop stop-opacity="1" stop-color="rgb(1.948547%, 16.404724%, 60.333252%)" offset="0.289062"/><stop stop-opacity="1" stop-color="rgb(1.937866%, 16.314697%, 60.00061%)" offset="0.292969"/><stop stop-opacity="1" stop-color="rgb(1.927185%, 16.223145%, 59.669495%)" offset="0.296875"/><stop stop-opacity="1" stop-color="rgb(1.916504%, 16.133118%, 59.336853%)" offset="0.300781"/><stop stop-opacity="1" stop-color="rgb(1.905823%, 16.043091%, 59.004211%)" offset="0.304688"/><stop stop-opacity="1" stop-color="rgb(1.895142%, 15.953064%, 58.67157%)" offset="0.308594"/><stop stop-opacity="1" stop-color="rgb(1.88446%, 15.861511%, 58.338928%)" offset="0.3125"/><stop stop-opacity="1" stop-color="rgb(1.873779%, 15.771484%, 58.006287%)" offset="0.316406"/><stop stop-opacity="1" stop-color="rgb(1.861572%, 15.681458%, 57.673645%)" offset="0.320312"/><stop stop-opacity="1" stop-color="rgb(1.850891%, 15.591431%, 57.342529%)" offset="0.324219"/><stop stop-opacity="1" stop-color="rgb(1.84021%, 15.501404%, 57.009888%)" offset="0.328125"/><stop stop-opacity="1" stop-color="rgb(1.829529%, 15.409851%, 56.677246%)" offset="0.332031"/><stop stop-opacity="1" stop-color="rgb(1.818848%, 15.319824%, 56.344604%)" offset="0.335938"/><stop stop-opacity="1" stop-color="rgb(1.808167%, 15.229797%, 56.011963%)" offset="0.339844"/><stop stop-opacity="1" stop-color="rgb(1.797485%, 15.139771%, 55.679321%)" offset="0.34375"/><stop stop-opacity="1" stop-color="rgb(1.786804%, 15.048218%, 55.34668%)" offset="0.347656"/><stop stop-opacity="1" stop-color="rgb(1.776123%, 14.958191%, 55.015564%)" offset="0.351562"/><stop stop-opacity="1" stop-color="rgb(1.765442%, 14.868164%, 54.682922%)" offset="0.355469"/><stop stop-opacity="1" stop-color="rgb(1.754761%, 14.778137%, 54.350281%)" offset="0.359375"/><stop stop-opacity="1" stop-color="rgb(1.74408%, 14.686584%, 54.017639%)" offset="0.363281"/><stop stop-opacity="1" stop-color="rgb(1.733398%, 14.596558%, 53.684998%)" offset="0.367188"/><stop stop-opacity="1" stop-color="rgb(1.722717%, 14.506531%, 53.352356%)" offset="0.371094"/><stop stop-opacity="1" stop-color="rgb(1.712036%, 14.416504%, 53.019714%)" offset="0.375"/><stop stop-opacity="1" stop-color="rgb(1.701355%, 14.324951%, 52.688599%)" offset="0.378906"/><stop stop-opacity="1" stop-color="rgb(1.690674%, 14.234924%, 52.355957%)" offset="0.382812"/><stop stop-opacity="1" stop-color="rgb(1.679993%, 14.144897%, 52.023315%)" offset="0.386719"/><stop stop-opacity="1" stop-color="rgb(1.669312%, 14.054871%, 51.690674%)" offset="0.390625"/><stop stop-opacity="1" stop-color="rgb(1.65863%, 13.963318%, 51.358032%)" offset="0.394531"/><stop stop-opacity="1" stop-color="rgb(1.647949%, 13.873291%, 51.025391%)" offset="0.398438"/><stop stop-opacity="1" stop-color="rgb(1.637268%, 13.783264%, 50.692749%)" offset="0.402344"/><stop stop-opacity="1" stop-color="rgb(1.626587%, 13.693237%, 50.361633%)" offset="0.40625"/><stop stop-opacity="1" stop-color="rgb(1.615906%, 13.601685%, 50.028992%)" offset="0.410156"/><stop stop-opacity="1" stop-color="rgb(1.605225%, 13.511658%, 49.69635%)" offset="0.414062"/><stop stop-opacity="1" stop-color="rgb(1.593018%, 13.421631%, 49.363708%)" offset="0.417969"/><stop stop-opacity="1" stop-color="rgb(1.582336%, 13.331604%, 49.031067%)" offset="0.421875"/><stop stop-opacity="1" stop-color="rgb(1.571655%, 13.241577%, 48.698425%)" offset="0.425781"/><stop stop-opacity="1" stop-color="rgb(1.560974%, 13.150024%, 48.365784%)" offset="0.429688"/><stop stop-opacity="1" stop-color="rgb(1.550293%, 13.059998%, 48.034668%)" offset="0.433594"/><stop stop-opacity="1" stop-color="rgb(1.539612%, 12.969971%, 47.702026%)" offset="0.4375"/><stop stop-opacity="1" stop-color="rgb(1.528931%, 12.879944%, 47.369385%)" offset="0.441406"/><stop stop-opacity="1" stop-color="rgb(1.51825%, 12.788391%, 47.036743%)" offset="0.445312"/><stop stop-opacity="1" stop-color="rgb(1.507568%, 12.698364%, 46.704102%)" offset="0.449219"/><stop stop-opacity="1" stop-color="rgb(1.496887%, 12.608337%, 46.37146%)" offset="0.453125"/><stop stop-opacity="1" stop-color="rgb(1.486206%, 12.518311%, 46.038818%)" offset="0.457031"/><stop stop-opacity="1" stop-color="rgb(1.475525%, 12.426758%, 45.707703%)" offset="0.460938"/><stop stop-opacity="1" stop-color="rgb(1.464844%, 12.336731%, 45.375061%)" offset="0.464844"/><stop stop-opacity="1" stop-color="rgb(1.454163%, 12.246704%, 45.042419%)" offset="0.46875"/><stop stop-opacity="1" stop-color="rgb(1.443481%, 12.156677%, 44.709778%)" offset="0.472656"/><stop stop-opacity="1" stop-color="rgb(1.4328%, 12.065125%, 44.377136%)" offset="0.476562"/><stop stop-opacity="1" stop-color="rgb(1.422119%, 11.975098%, 44.044495%)" offset="0.480469"/><stop stop-opacity="1" stop-color="rgb(1.411438%, 11.885071%, 43.711853%)" offset="0.484375"/><stop stop-opacity="1" stop-color="rgb(1.400757%, 11.795044%, 43.380737%)" offset="0.488281"/><stop stop-opacity="1" stop-color="rgb(1.390076%, 11.703491%, 43.048096%)" offset="0.492188"/><stop stop-opacity="1" stop-color="rgb(1.379395%, 11.613464%, 42.715454%)" offset="0.496094"/><stop stop-opacity="1" stop-color="rgb(1.368713%, 11.523438%, 42.382812%)" offset="0.5"/><stop stop-opacity="1" stop-color="rgb(1.358032%, 11.433411%, 42.050171%)" offset="0.503906"/><stop stop-opacity="1" stop-color="rgb(1.347351%, 11.343384%, 41.717529%)" offset="0.507812"/><stop stop-opacity="1" stop-color="rgb(1.33667%, 11.251831%, 41.386414%)" offset="0.511719"/><stop stop-opacity="1" stop-color="rgb(1.324463%, 11.161804%, 41.053772%)" offset="0.515625"/><stop stop-opacity="1" stop-color="rgb(1.313782%, 11.071777%, 40.72113%)" offset="0.519531"/><stop stop-opacity="1" stop-color="rgb(1.303101%, 10.98175%, 40.388489%)" offset="0.523438"/><stop stop-opacity="1" stop-color="rgb(1.292419%, 10.890198%, 40.055847%)" offset="0.527344"/><stop stop-opacity="1" stop-color="rgb(1.281738%, 10.800171%, 39.723206%)" offset="0.53125"/><stop stop-opacity="1" stop-color="rgb(1.271057%, 10.710144%, 39.390564%)" offset="0.535156"/><stop stop-opacity="1" stop-color="rgb(1.260376%, 10.620117%, 39.059448%)" offset="0.539062"/><stop stop-opacity="1" stop-color="rgb(1.249695%, 10.528564%, 38.726807%)" offset="0.542969"/><stop stop-opacity="1" stop-color="rgb(1.239014%, 10.438538%, 38.394165%)" offset="0.546875"/><stop stop-opacity="1" stop-color="rgb(1.228333%, 10.348511%, 38.061523%)" offset="0.550781"/><stop stop-opacity="1" stop-color="rgb(1.217651%, 10.258484%, 37.728882%)" offset="0.554688"/><stop stop-opacity="1" stop-color="rgb(1.20697%, 10.166931%, 37.39624%)" offset="0.558594"/><stop stop-opacity="1" stop-color="rgb(1.196289%, 10.076904%, 37.063599%)" offset="0.5625"/><stop stop-opacity="1" stop-color="rgb(1.185608%, 9.986877%, 36.732483%)" offset="0.566406"/><stop stop-opacity="1" stop-color="rgb(1.174927%, 9.896851%, 36.399841%)" offset="0.570312"/><stop stop-opacity="1" stop-color="rgb(1.164246%, 9.805298%, 36.0672%)" offset="0.574219"/><stop stop-opacity="1" stop-color="rgb(1.153564%, 9.715271%, 35.734558%)" offset="0.578125"/><stop stop-opacity="1" stop-color="rgb(1.142883%, 9.625244%, 35.401917%)" offset="0.582031"/><stop stop-opacity="1" stop-color="rgb(1.132202%, 9.535217%, 35.069275%)" offset="0.585938"/><stop stop-opacity="1" stop-color="rgb(1.121521%, 9.44519%, 34.736633%)" offset="0.589844"/><stop stop-opacity="1" stop-color="rgb(1.11084%, 9.353638%, 34.405518%)" offset="0.59375"/><stop stop-opacity="1" stop-color="rgb(1.100159%, 9.263611%, 34.072876%)" offset="0.597656"/><stop stop-opacity="1" stop-color="rgb(1.089478%, 9.173584%, 33.740234%)" offset="0.601562"/><stop stop-opacity="1" stop-color="rgb(1.078796%, 9.083557%, 33.407593%)" offset="0.605469"/><stop stop-opacity="1" stop-color="rgb(1.068115%, 8.992004%, 33.074951%)" offset="0.609375"/><stop stop-opacity="1" stop-color="rgb(1.055908%, 8.901978%, 32.74231%)" offset="0.613281"/><stop stop-opacity="1" stop-color="rgb(1.045227%, 8.811951%, 32.409668%)" offset="0.617188"/><stop stop-opacity="1" stop-color="rgb(1.034546%, 8.721924%, 32.078552%)" offset="0.621094"/><stop stop-opacity="1" stop-color="rgb(1.023865%, 8.630371%, 31.745911%)" offset="0.625"/><stop stop-opacity="1" stop-color="rgb(1.013184%, 8.540344%, 31.413269%)" offset="0.628906"/><stop stop-opacity="1" stop-color="rgb(1.002502%, 8.450317%, 31.080627%)" offset="0.632812"/><stop stop-opacity="1" stop-color="rgb(0.991821%, 8.360291%, 30.747986%)" offset="0.636719"/><stop stop-opacity="1" stop-color="rgb(0.98114%, 8.268738%, 30.415344%)" offset="0.640625"/><stop stop-opacity="1" stop-color="rgb(0.970459%, 8.178711%, 30.082703%)" offset="0.644531"/><stop stop-opacity="1" stop-color="rgb(0.959778%, 8.088684%, 29.751587%)" offset="0.648438"/><stop stop-opacity="1" stop-color="rgb(0.949097%, 7.998657%, 29.418945%)" offset="0.652344"/><stop stop-opacity="1" stop-color="rgb(0.938416%, 7.907104%, 29.086304%)" offset="0.65625"/><stop stop-opacity="1" stop-color="rgb(0.927734%, 7.817078%, 28.753662%)" offset="0.660156"/><stop stop-opacity="1" stop-color="rgb(0.917053%, 7.727051%, 28.421021%)" offset="0.664062"/><stop stop-opacity="1" stop-color="rgb(0.906372%, 7.637024%, 28.088379%)" offset="0.667969"/><stop stop-opacity="1" stop-color="rgb(0.895691%, 7.546997%, 27.755737%)" offset="0.671875"/><stop stop-opacity="1" stop-color="rgb(0.88501%, 7.455444%, 27.424622%)" offset="0.675781"/><stop stop-opacity="1" stop-color="rgb(0.874329%, 7.365417%, 27.09198%)" offset="0.679688"/><stop stop-opacity="1" stop-color="rgb(0.863647%, 7.275391%, 26.759338%)" offset="0.683594"/><stop stop-opacity="1" stop-color="rgb(0.852966%, 7.185364%, 26.426697%)" offset="0.6875"/><stop stop-opacity="1" stop-color="rgb(0.842285%, 7.093811%, 26.094055%)" offset="0.691406"/><stop stop-opacity="1" stop-color="rgb(0.831604%, 7.003784%, 25.761414%)" offset="0.695312"/><stop stop-opacity="1" stop-color="rgb(0.820923%, 6.913757%, 25.428772%)" offset="0.699219"/><stop stop-opacity="1" stop-color="rgb(0.810242%, 6.82373%, 25.097656%)" offset="0.703125"/><stop stop-opacity="1" stop-color="rgb(0.799561%, 6.732178%, 24.765015%)" offset="0.707031"/><stop stop-opacity="1" stop-color="rgb(0.787354%, 6.642151%, 24.432373%)" offset="0.710938"/><stop stop-opacity="1" stop-color="rgb(0.776672%, 6.552124%, 24.099731%)" offset="0.714844"/><stop stop-opacity="1" stop-color="rgb(0.765991%, 6.462097%, 23.76709%)" offset="0.71875"/><stop stop-opacity="1" stop-color="rgb(0.75531%, 6.370544%, 23.434448%)" offset="0.722656"/><stop stop-opacity="1" stop-color="rgb(0.744629%, 6.280518%, 23.101807%)" offset="0.726562"/><stop stop-opacity="1" stop-color="rgb(0.733948%, 6.190491%, 22.770691%)" offset="0.730469"/><stop stop-opacity="1" stop-color="rgb(0.723267%, 6.100464%, 22.438049%)" offset="0.734375"/><stop stop-opacity="1" stop-color="rgb(0.712585%, 6.008911%, 22.105408%)" offset="0.738281"/><stop stop-opacity="1" stop-color="rgb(0.701904%, 5.918884%, 21.772766%)" offset="0.742188"/><stop stop-opacity="1" stop-color="rgb(0.691223%, 5.828857%, 21.440125%)" offset="0.746094"/><stop stop-opacity="1" stop-color="rgb(0.680542%, 5.738831%, 21.107483%)" offset="0.75"/><stop stop-opacity="1" stop-color="rgb(0.669861%, 5.648804%, 20.774841%)" offset="0.753906"/><stop stop-opacity="1" stop-color="rgb(0.65918%, 5.557251%, 20.443726%)" offset="0.757812"/><stop stop-opacity="1" stop-color="rgb(0.648499%, 5.467224%, 20.111084%)" offset="0.761719"/><stop stop-opacity="1" stop-color="rgb(0.637817%, 5.377197%, 19.778442%)" offset="0.765625"/><stop stop-opacity="1" stop-color="rgb(0.627136%, 5.28717%, 19.445801%)" offset="0.769531"/><stop stop-opacity="1" stop-color="rgb(0.616455%, 5.195618%, 19.113159%)" offset="0.773438"/><stop stop-opacity="1" stop-color="rgb(0.605774%, 5.105591%, 18.780518%)" offset="0.777344"/><stop stop-opacity="1" stop-color="rgb(0.595093%, 5.015564%, 18.447876%)" offset="0.78125"/><stop stop-opacity="1" stop-color="rgb(0.584412%, 4.925537%, 18.11676%)" offset="0.785156"/><stop stop-opacity="1" stop-color="rgb(0.57373%, 4.833984%, 17.784119%)" offset="0.789062"/><stop stop-opacity="1" stop-color="rgb(0.563049%, 4.743958%, 17.451477%)" offset="0.792969"/><stop stop-opacity="1" stop-color="rgb(0.552368%, 4.653931%, 17.118835%)" offset="0.796875"/><stop stop-opacity="1" stop-color="rgb(0.541687%, 4.563904%, 16.786194%)" offset="0.800781"/><stop stop-opacity="1" stop-color="rgb(0.531006%, 4.472351%, 16.453552%)" offset="0.804688"/><stop stop-opacity="1" stop-color="rgb(0.518799%, 4.382324%, 16.120911%)" offset="0.808594"/><stop stop-opacity="1" stop-color="rgb(0.508118%, 4.292297%, 15.789795%)" offset="0.8125"/><stop stop-opacity="1" stop-color="rgb(0.497437%, 4.202271%, 15.457153%)" offset="0.816406"/><stop stop-opacity="1" stop-color="rgb(0.486755%, 4.110718%, 15.124512%)" offset="0.820312"/><stop stop-opacity="1" stop-color="rgb(0.476074%, 4.020691%, 14.79187%)" offset="0.824219"/><stop stop-opacity="1" stop-color="rgb(0.465393%, 3.930664%, 14.459229%)" offset="0.828125"/><stop stop-opacity="1" stop-color="rgb(0.454712%, 3.840637%, 14.126587%)" offset="0.832031"/><stop stop-opacity="1" stop-color="rgb(0.444031%, 3.75061%, 13.793945%)" offset="0.835938"/><stop stop-opacity="1" stop-color="rgb(0.43335%, 3.659058%, 13.46283%)" offset="0.839844"/><stop stop-opacity="1" stop-color="rgb(0.422668%, 3.569031%, 13.130188%)" offset="0.84375"/><stop stop-opacity="1" stop-color="rgb(0.411987%, 3.479004%, 12.797546%)" offset="0.847656"/><stop stop-opacity="1" stop-color="rgb(0.401306%, 3.388977%, 12.464905%)" offset="0.851562"/><stop stop-opacity="1" stop-color="rgb(0.390625%, 3.297424%, 12.132263%)" offset="0.855469"/><stop stop-opacity="1" stop-color="rgb(0.379944%, 3.207397%, 11.799622%)" offset="0.859375"/><stop stop-opacity="1" stop-color="rgb(0.369263%, 3.117371%, 11.46698%)" offset="0.863281"/><stop stop-opacity="1" stop-color="rgb(0.358582%, 3.027344%, 11.135864%)" offset="0.867188"/><stop stop-opacity="1" stop-color="rgb(0.3479%, 2.935791%, 10.803223%)" offset="0.871094"/><stop stop-opacity="1" stop-color="rgb(0.337219%, 2.845764%, 10.470581%)" offset="0.875"/><stop stop-opacity="1" stop-color="rgb(0.326538%, 2.755737%, 10.137939%)" offset="0.878906"/><stop stop-opacity="1" stop-color="rgb(0.315857%, 2.66571%, 9.805298%)" offset="0.882812"/><stop stop-opacity="1" stop-color="rgb(0.305176%, 2.574158%, 9.472656%)" offset="0.886719"/><stop stop-opacity="1" stop-color="rgb(0.294495%, 2.484131%, 9.140015%)" offset="0.890625"/><stop stop-opacity="1" stop-color="rgb(0.283813%, 2.394104%, 8.808899%)" offset="0.894531"/><stop stop-opacity="1" stop-color="rgb(0.273132%, 2.304077%, 8.476257%)" offset="0.898438"/><stop stop-opacity="1" stop-color="rgb(0.262451%, 2.212524%, 8.143616%)" offset="0.902344"/><stop stop-opacity="1" stop-color="rgb(0.250244%, 2.122498%, 7.810974%)" offset="0.90625"/><stop stop-opacity="1" stop-color="rgb(0.239563%, 2.032471%, 7.478333%)" offset="0.910156"/><stop stop-opacity="1" stop-color="rgb(0.228882%, 1.942444%, 7.145691%)" offset="0.914062"/><stop stop-opacity="1" stop-color="rgb(0.218201%, 1.852417%, 6.813049%)" offset="0.917969"/><stop stop-opacity="1" stop-color="rgb(0.20752%, 1.760864%, 6.481934%)" offset="0.921875"/><stop stop-opacity="1" stop-color="rgb(0.196838%, 1.670837%, 6.149292%)" offset="0.925781"/><stop stop-opacity="1" stop-color="rgb(0.186157%, 1.580811%, 5.81665%)" offset="0.929688"/><stop stop-opacity="1" stop-color="rgb(0.175476%, 1.490784%, 5.484009%)" offset="0.933594"/><stop stop-opacity="1" stop-color="rgb(0.164795%, 1.399231%, 5.151367%)" offset="0.9375"/><stop stop-opacity="1" stop-color="rgb(0.154114%, 1.309204%, 4.818726%)" offset="0.941406"/><stop stop-opacity="1" stop-color="rgb(0.143433%, 1.219177%, 4.486084%)" offset="0.945312"/><stop stop-opacity="1" stop-color="rgb(0.132751%, 1.12915%, 4.154968%)" offset="0.949219"/><stop stop-opacity="1" stop-color="rgb(0.12207%, 1.037598%, 3.822327%)" offset="0.953125"/><stop stop-opacity="1" stop-color="rgb(0.111389%, 0.947571%, 3.489685%)" offset="0.957031"/><stop stop-opacity="1" stop-color="rgb(0.100708%, 0.857544%, 3.157043%)" offset="0.960938"/><stop stop-opacity="1" stop-color="rgb(0.0900269%, 0.767517%, 2.824402%)" offset="0.964844"/><stop stop-opacity="1" stop-color="rgb(0.0793457%, 0.675964%, 2.49176%)" offset="0.96875"/><stop stop-opacity="1" stop-color="rgb(0.0686646%, 0.585938%, 2.159119%)" offset="0.972656"/><stop stop-opacity="1" stop-color="rgb(0.0579834%, 0.495911%, 1.828003%)" offset="0.976562"/><stop stop-opacity="1" stop-color="rgb(0.0473022%, 0.405884%, 1.495361%)" offset="0.980469"/><stop stop-opacity="1" stop-color="rgb(0.0366211%, 0.314331%, 1.16272%)" offset="0.984375"/><stop stop-opacity="1" stop-color="rgb(0.0259399%, 0.224304%, 0.830078%)" offset="0.988281"/><stop stop-opacity="1" stop-color="rgb(0.0152588%, 0.134277%, 0.497437%)" offset="0.992188"/><stop stop-opacity="1" stop-color="rgb(0.00457764%, 0.0442505%, 0.164795%)" offset="0.996094"/><stop stop-opacity="1" stop-color="rgb(0%, 0%, 0%)" offset="1"/></radialGradient><clipPath id="2077fa3bad"><rect x="0" width="502" y="0" height="160"/></clipPath><clipPath id="f2165043fd"><rect x="0" width="280" y="0" height="64"/></clipPath></defs><g clip-path="url(#b423befd3b)"><g transform="matrix(1, 0, 0, 1, 154, 325)"><g clip-path="url(#2077fa3bad)"><g clip-path="url(#2e8e2e7e19)"><path fill="url(#5ce5f17f76)" d="M 0.367188 0.640625 L 0.367188 159.355469 L 501.632812 159.355469 L 501.632812 0.640625 Z M 0.367188 0.640625 " fill-rule="nonzero"/></g></g></g></g><g transform="matrix(1, 0, 0, 1, 265, 373)"><g clip-path="url(#f2165043fd)"><g fill="#ffffff" fill-opacity="1"><g transform="translate(2.779005, 49.877142)"><g/></g></g><g fill="#ffffff" fill-opacity="1"><g transform="translate(14.722994, 49.877142)"><g><path d="M 23.515625 -9.109375 C 23.515625 -7.171875 23.039062 -5.484375 22.09375 -4.046875 C 21.144531 -2.609375 19.769531 -1.5 17.96875 -0.71875 C 16.164062 0.0625 13.976562 0.453125 11.40625 0.453125 C 10.269531 0.453125 9.15625 0.375 8.0625 0.21875 C 6.976562 0.0703125 5.9375 -0.144531 4.9375 -0.4375 C 3.945312 -0.726562 3.003906 -1.09375 2.109375 -1.53125 L 2.109375 -8 C 3.671875 -7.300781 5.285156 -6.675781 6.953125 -6.125 C 8.628906 -5.570312 10.289062 -5.296875 11.9375 -5.296875 C 13.082031 -5.296875 14 -5.445312 14.6875 -5.75 C 15.382812 -6.050781 15.890625 -6.460938 16.203125 -6.984375 C 16.523438 -7.503906 16.6875 -8.101562 16.6875 -8.78125 C 16.6875 -9.601562 16.40625 -10.304688 15.84375 -10.890625 C 15.289062 -11.472656 14.53125 -12.019531 13.5625 -12.53125 C 12.601562 -13.039062 11.519531 -13.585938 10.3125 -14.171875 C 9.539062 -14.523438 8.707031 -14.957031 7.8125 -15.46875 C 6.914062 -15.988281 6.0625 -16.625 5.25 -17.375 C 4.445312 -18.125 3.785156 -19.035156 3.265625 -20.109375 C 2.753906 -21.179688 2.5 -22.460938 2.5 -23.953125 C 2.5 -25.921875 2.945312 -27.597656 3.84375 -28.984375 C 4.738281 -30.378906 6.019531 -31.445312 7.6875 -32.1875 C 9.351562 -32.925781 11.328125 -33.296875 13.609375 -33.296875 C 15.316406 -33.296875 16.941406 -33.097656 18.484375 -32.703125 C 20.035156 -32.304688 21.65625 -31.734375 23.34375 -30.984375 L 21.109375 -25.578125 C 19.597656 -26.191406 18.242188 -26.664062 17.046875 -27 C 15.847656 -27.332031 14.625 -27.5 13.375 -27.5 C 12.507812 -27.5 11.769531 -27.359375 11.15625 -27.078125 C 10.539062 -26.804688 10.078125 -26.421875 9.765625 -25.921875 C 9.453125 -25.421875 9.296875 -24.84375 9.296875 -24.1875 C 9.296875 -23.40625 9.523438 -22.75 9.984375 -22.21875 C 10.441406 -21.6875 11.128906 -21.171875 12.046875 -20.671875 C 12.960938 -20.179688 14.113281 -19.609375 15.5 -18.953125 C 17.164062 -18.160156 18.59375 -17.332031 19.78125 -16.46875 C 20.976562 -15.601562 21.898438 -14.59375 22.546875 -13.4375 C 23.191406 -12.28125 23.515625 -10.835938 23.515625 -9.109375 Z M 23.515625 -9.109375 "/></g></g></g><g fill="#ffffff" fill-opacity="1"><g transform="translate(40.046043, 49.877142)"><g><path d="M 24.234375 0 L 21.84375 -7.8125 L 9.875 -7.8125 L 7.5 0 L 0 0 L 11.578125 -32.96875 L 20.09375 -32.96875 L 31.71875 0 Z M 20.1875 -13.65625 L 17.8125 -21.28125 C 17.65625 -21.789062 17.453125 -22.445312 17.203125 -23.25 C 16.960938 -24.050781 16.71875 -24.863281 16.46875 -25.6875 C 16.21875 -26.519531 16.019531 -27.242188 15.875 -27.859375 C 15.726562 -27.242188 15.519531 -26.484375 15.25 -25.578125 C 14.988281 -24.679688 14.738281 -23.828125 14.5 -23.015625 C 14.257812 -22.203125 14.085938 -21.625 13.984375 -21.28125 L 11.625 -13.65625 Z M 20.1875 -13.65625 "/></g></g></g><g fill="#ffffff" fill-opacity="1"><g transform="translate(71.767204, 49.877142)"><g><path d="M 4.125 0 L 4.125 -32.828125 L 11.09375 -32.828125 L 11.09375 0 Z M 4.125 0 "/></g></g></g><g fill="#ffffff" fill-opacity="1"><g transform="translate(86.987973, 49.877142)"><g><path d="M 4.125 -32.828125 L 14.34375 -32.828125 C 18.71875 -32.828125 22.023438 -32.210938 24.265625 -30.984375 C 26.515625 -29.753906 27.640625 -27.597656 27.640625 -24.515625 C 27.640625 -23.273438 27.441406 -22.148438 27.046875 -21.140625 C 26.648438 -20.140625 26.078125 -19.316406 25.328125 -18.671875 C 24.578125 -18.035156 23.664062 -17.617188 22.59375 -17.421875 L 22.59375 -17.203125 C 23.6875 -16.972656 24.671875 -16.582031 25.546875 -16.03125 C 26.429688 -15.488281 27.140625 -14.695312 27.671875 -13.65625 C 28.203125 -12.625 28.46875 -11.242188 28.46875 -9.515625 C 28.46875 -7.523438 27.976562 -5.816406 27 -4.390625 C 26.03125 -2.972656 24.644531 -1.882812 22.84375 -1.125 C 21.039062 -0.375 18.894531 0 16.40625 0 L 4.125 0 Z M 11.09375 -19.828125 L 15.140625 -19.828125 C 17.160156 -19.828125 18.554688 -20.144531 19.328125 -20.78125 C 20.109375 -21.414062 20.5 -22.351562 20.5 -23.59375 C 20.5 -24.851562 20.035156 -25.753906 19.109375 -26.296875 C 18.191406 -26.847656 16.738281 -27.125 14.75 -27.125 L 11.09375 -27.125 Z M 11.09375 -14.296875 L 11.09375 -5.75 L 15.625 -5.75 C 17.71875 -5.75 19.175781 -6.148438 20 -6.953125 C 20.820312 -7.765625 21.234375 -8.851562 21.234375 -10.21875 C 21.234375 -11.019531 21.050781 -11.726562 20.6875 -12.34375 C 20.332031 -12.957031 19.734375 -13.4375 18.890625 -13.78125 C 18.046875 -14.125 16.882812 -14.296875 15.40625 -14.296875 Z M 11.09375 -14.296875 "/></g></g></g><g fill="#ffffff" fill-opacity="1"><g transform="translate(117.878501, 49.877142)"><g><path d="M 24.234375 0 L 21.84375 -7.8125 L 9.875 -7.8125 L 7.5 0 L 0 0 L 11.578125 -32.96875 L 20.09375 -32.96875 L 31.71875 0 Z M 20.1875 -13.65625 L 17.8125 -21.28125 C 17.65625 -21.789062 17.453125 -22.445312 17.203125 -23.25 C 16.960938 -24.050781 16.71875 -24.863281 16.46875 -25.6875 C 16.21875 -26.519531 16.019531 -27.242188 15.875 -27.859375 C 15.726562 -27.242188 15.519531 -26.484375 15.25 -25.578125 C 14.988281 -24.679688 14.738281 -23.828125 14.5 -23.015625 C 14.257812 -22.203125 14.085938 -21.625 13.984375 -21.28125 L 11.625 -13.65625 Z M 20.1875 -13.65625 "/></g></g></g><g fill="#ffffff" fill-opacity="1"><g transform="translate(149.599662, 49.877142)"><g/></g></g><g fill="#ffffff" fill-opacity="1"><g transform="translate(161.542802, 49.877142)"><g><path d="M 18.03125 0 L 10.125 -25.75 L 9.921875 -25.75 C 9.953125 -25.132812 10 -24.207031 10.0625 -22.96875 C 10.132812 -21.738281 10.195312 -20.425781 10.25 -19.03125 C 10.3125 -17.644531 10.34375 -16.390625 10.34375 -15.265625 L 10.34375 0 L 4.125 0 L 4.125 -32.828125 L 13.609375 -32.828125 L 21.375 -7.71875 L 21.515625 -7.71875 L 29.75 -32.828125 L 39.21875 -32.828125 L 39.21875 0 L 32.734375 0 L 32.734375 -15.53125 C 32.734375 -16.570312 32.75 -17.765625 32.78125 -19.109375 C 32.820312 -20.453125 32.875 -21.734375 32.9375 -22.953125 C 33 -24.171875 33.046875 -25.085938 33.078125 -25.703125 L 32.875 -25.703125 L 24.40625 0 Z M 18.03125 0 "/></g></g></g><g fill="#ffffff" fill-opacity="1"><g transform="translate(204.89281, 49.877142)"><g><path d="M 24.234375 0 L 21.84375 -7.8125 L 9.875 -7.8125 L 7.5 0 L 0 0 L 11.578125 -32.96875 L 20.09375 -32.96875 L 31.71875 0 Z M 20.1875 -13.65625 L 17.8125 -21.28125 C 17.65625 -21.789062 17.453125 -22.445312 17.203125 -23.25 C 16.960938 -24.050781 16.71875 -24.863281 16.46875 -25.6875 C 16.21875 -26.519531 16.019531 -27.242188 15.875 -27.859375 C 15.726562 -27.242188 15.519531 -26.484375 15.25 -25.578125 C 14.988281 -24.679688 14.738281 -23.828125 14.5 -23.015625 C 14.257812 -22.203125 14.085938 -21.625 13.984375 -21.28125 L 11.625 -13.65625 Z M 20.1875 -13.65625 "/></g></g></g><g fill="#ffffff" fill-opacity="1"><g transform="translate(236.613971, 49.877142)"><g><path d="M 4.125 0 L 4.125 -32.828125 L 11.09375 -32.828125 L 11.09375 0 Z M 4.125 0 "/></g></g></g><g fill="#ffffff" fill-opacity="1"><g transform="translate(251.83474, 49.877142)"><g><path d="M 23.515625 -9.109375 C 23.515625 -7.171875 23.039062 -5.484375 22.09375 -4.046875 C 21.144531 -2.609375 19.769531 -1.5 17.96875 -0.71875 C 16.164062 0.0625 13.976562 0.453125 11.40625 0.453125 C 10.269531 0.453125 9.15625 0.375 8.0625 0.21875 C 6.976562 0.0703125 5.9375 -0.144531 4.9375 -0.4375 C 3.945312 -0.726562 3.003906 -1.09375 2.109375 -1.53125 L 2.109375 -8 C 3.671875 -7.300781 5.285156 -6.675781 6.953125 -6.125 C 8.628906 -5.570312 10.289062 -5.296875 11.9375 -5.296875 C 13.082031 -5.296875 14 -5.445312 14.6875 -5.75 C 15.382812 -6.050781 15.890625 -6.460938 16.203125 -6.984375 C 16.523438 -7.503906 16.6875 -8.101562 16.6875 -8.78125 C 16.6875 -9.601562 16.40625 -10.304688 15.84375 -10.890625 C 15.289062 -11.472656 14.53125 -12.019531 13.5625 -12.53125 C 12.601562 -13.039062 11.519531 -13.585938 10.3125 -14.171875 C 9.539062 -14.523438 8.707031 -14.957031 7.8125 -15.46875 C 6.914062 -15.988281 6.0625 -16.625 5.25 -17.375 C 4.445312 -18.125 3.785156 -19.035156 3.265625 -20.109375 C 2.753906 -21.179688 2.5 -22.460938 2.5 -23.953125 C 2.5 -25.921875 2.945312 -27.597656 3.84375 -28.984375 C 4.738281 -30.378906 6.019531 -31.445312 7.6875 -32.1875 C 9.351562 -32.925781 11.328125 -33.296875 13.609375 -33.296875 C 15.316406 -33.296875 16.941406 -33.097656 18.484375 -32.703125 C 20.035156 -32.304688 21.65625 -31.734375 23.34375 -30.984375 L 21.109375 -25.578125 C 19.597656 -26.191406 18.242188 -26.664062 17.046875 -27 C 15.847656 -27.332031 14.625 -27.5 13.375 -27.5 C 12.507812 -27.5 11.769531 -27.359375 11.15625 -27.078125 C 10.539062 -26.804688 10.078125 -26.421875 9.765625 -25.921875 C 9.453125 -25.421875 9.296875 -24.84375 9.296875 -24.1875 C 9.296875 -23.40625 9.523438 -22.75 9.984375 -22.21875 C 10.441406 -21.6875 11.128906 -21.171875 12.046875 -20.671875 C 12.960938 -20.179688 14.113281 -19.609375 15.5 -18.953125 C 17.164062 -18.160156 18.59375 -17.332031 19.78125 -16.46875 C 20.976562 -15.601562 21.898438 -14.59375 22.546875 -13.4375 C 23.191406 -12.28125 23.515625 -10.835938 23.515625 -9.109375 Z M 23.515625 -9.109375 "/></g></g></g></g></g></svg>