<svg xmlns="http://www.w3.org/2000/svg" xmlns:xlink="http://www.w3.org/1999/xlink" width="1080" zoomAndPan="magnify" viewBox="0 0 810 809.999993" height="1080" preserveAspectRatio="xMidYMid meet" version="1.0"><defs><filter x="0%" y="0%" width="100%" height="100%" id="a41b6e713c"><feColorMatrix values="0 0 0 0 1 0 0 0 0 1 0 0 0 0 1 0 0 0 1 0" color-interpolation-filters="sRGB"/></filter><mask id="696c8f5431"><g filter="url(#a41b6e713c)"><rect x="-81" width="972" fill="#000000" y="-80.999999" height="971.999992" fill-opacity="0.3"/></g></mask><clipPath id="b0177c5cc4"><path d="M 3.628906 1 L 742.640625 1 L 742.640625 366 L 3.628906 366 Z M 3.628906 1 " clip-rule="nonzero"/></clipPath><clipPath id="0497000f68"><rect x="0" width="743" y="0" height="367"/></clipPath></defs><g mask="url(#696c8f5431)"><g transform="matrix(1, 0, 0, 1, 46, 213)"><g clip-path="url(#0497000f68)"><g clip-path="url(#b0177c5cc4)"><path fill="#022859" d="M 462.308594 1.152344 L 463.089844 60.398438 C 463.132812 64.804688 468.976562 66.320312 471.15625 62.5 L 481.308594 31.558594 L 692.3125 31.558594 L 592.683594 301.265625 L 530.96875 306.5 L 566.445312 209.203125 L 444.390625 108.226562 L 369.515625 123.863281 C 375.960938 111.640625 376.890625 108.078125 376.914062 94.007812 C 377.019531 44.039062 337.015625 2.582031 287.054688 2.222656 C 236.675781 1.859375 195.777344 42.628906 195.863281 92.90625 C 195.90625 120.359375 212.449219 151.53125 231.769531 168.074219 L 0.929688 292.875 L 417.167969 246.660156 L 417.191406 263.621094 L 164.683594 365.796875 L 612.667969 327.195312 L 742.359375 1.179688 L 462.308594 1.179688 Z M 217.027344 233.515625 C 208.832031 233.535156 202.164062 226.890625 202.15625 218.6875 C 202.136719 210.476562 208.78125 203.824219 216.984375 203.816406 C 225.195312 203.796875 231.847656 210.425781 231.855469 218.644531 C 231.871094 226.835938 225.246094 233.507812 217.027344 233.515625 Z M 217.027344 233.515625 " fill-opacity="1" fill-rule="nonzero"/></g></g></g></g></svg>