<svg xmlns="http://www.w3.org/2000/svg" xmlns:xlink="http://www.w3.org/1999/xlink" width="1080" zoomAndPan="magnify" viewBox="0 0 810 809.999993" height="1080" preserveAspectRatio="xMidYMid meet" version="1.0"><path fill="#010101" d="M 18.644531 397.011719 L 78.503906 397.011719 L 78.433594 410.046875 L 31.398438 410.046875 L 31.230469 439.328125 L 74.074219 423.035156 L 74.003906 436.113281 L 18.304688 457.835938 L 18.644531 397.003906 Z M 18.644531 397.011719 " fill-opacity="1" fill-rule="nonzero"/><path fill="#010101" d="M 78.460938 397.011719 L 134 397.011719 L 133.746094 457.84375 L 78.222656 440.417969 L 78.46875 397.011719 Z M 91.0625 430.515625 L 120.984375 439.207031 L 121.144531 410.054688 L 91.210938 410.054688 L 91.054688 430.523438 Z M 91.0625 430.515625 " fill-opacity="1" fill-rule="nonzero"/><path fill="#010101" d="M 134.046875 397.011719 L 193.902344 397.011719 L 193.71875 430.425781 L 158.1875 430.425781 L 203.878906 448.285156 L 191.292969 457.84375 L 138.089844 437.464844 L 138.203125 417.042969 L 180.957031 417.042969 L 180.992188 410.046875 L 133.957031 410.089844 L 134.027344 397.011719 Z M 134.046875 397.011719 " fill-opacity="1" fill-rule="nonzero"/><path fill="#010101" d="M 198.171875 397.011719 L 253.757812 397.011719 L 253.59375 427.429688 L 210.792969 435.207031 L 210.6875 453.496094 L 197.839844 457.835938 L 198.03125 423.078125 L 240.824219 417.042969 L 240.859375 410.046875 L 198.101562 410.046875 Z M 198.171875 397.011719 " fill-opacity="1" fill-rule="nonzero"/><path fill="#010101" d="M 258.03125 397.011719 L 313.574219 397.011719 L 313.316406 457.84375 L 257.792969 440.417969 L 258.039062 397.011719 Z M 270.632812 430.515625 L 300.558594 439.207031 L 300.714844 410.054688 L 270.78125 410.054688 L 270.625 430.523438 Z M 270.632812 430.515625 " fill-opacity="1" fill-rule="nonzero"/><path fill="#010101" d="M 313.617188 397.011719 L 373.472656 397.011719 L 373.289062 430.425781 L 337.757812 430.425781 L 383.449219 448.285156 L 370.863281 457.84375 L 317.660156 437.464844 L 317.773438 417.042969 L 360.527344 417.042969 L 360.5625 410.046875 L 313.527344 410.089844 L 313.597656 397.011719 Z M 313.617188 397.011719 " fill-opacity="1" fill-rule="nonzero"/><path fill="#010101" d="M 432.996094 457.84375 L 420.21875 449.152344 L 420.324219 430.46875 L 390.390625 430.46875 L 390.257812 453.496094 L 377.410156 457.835938 L 377.753906 397.003906 L 433.339844 397.003906 L 432.996094 457.835938 Z M 390.503906 410.046875 L 390.460938 417.304688 L 420.394531 417.304688 L 420.4375 410.046875 Z M 390.503906 410.046875 " fill-opacity="1" fill-rule="nonzero"/><path fill="#010101" d="M 437.609375 397.011719 L 497.46875 397.011719 L 497.398438 410.046875 L 450.363281 410.046875 L 450.195312 439.328125 L 493.039062 423.035156 L 492.96875 436.113281 L 437.269531 457.835938 L 437.609375 397.003906 Z M 437.609375 397.011719 " fill-opacity="1" fill-rule="nonzero"/><path fill="#010101" d="M 552.667969 457.84375 L 539.890625 449.152344 L 539.996094 430.46875 L 510.0625 430.46875 L 509.929688 453.496094 L 497.082031 457.835938 L 497.425781 397.003906 L 553.011719 397.003906 L 552.667969 457.835938 Z M 510.175781 410.046875 L 510.132812 417.304688 L 540.066406 417.304688 L 540.109375 410.046875 Z M 510.175781 410.046875 " fill-opacity="1" fill-rule="nonzero"/><path fill="#010101" d="M 557.28125 397.011719 L 612.824219 397.011719 L 612.570312 457.84375 L 557.042969 440.417969 L 557.289062 397.011719 Z M 569.875 430.515625 L 599.800781 439.207031 L 599.957031 410.054688 L 570.023438 410.054688 L 569.867188 430.523438 Z M 569.875 430.515625 " fill-opacity="1" fill-rule="nonzero"/><path fill="#010101" d="M 709.484375 358.878906 L 708.351562 377.765625 C 708.273438 379.09375 709.996094 379.671875 710.734375 378.566406 L 715.453125 368.34375 L 778.28125 367.429688 L 742.695312 446.386719 L 724.046875 446.667969 L 736.746094 418.175781 L 702.191406 385.273438 L 679.367188 388.398438 C 681.558594 384.867188 681.917969 383.8125 682.214844 379.585938 C 683.296875 364.574219 672.144531 351.277344 657.132812 350.128906 C 642 348.96875 628.863281 360.355469 627.832031 375.464844 C 627.269531 383.714844 631.585938 393.425781 637.054688 398.804688 L 565.078125 431.472656 L 691.117188 426.304688 L 690.777344 431.402344 L 612.761719 456.808594 L 748.179688 454.59375 L 793.976562 359.347656 L 709.503906 358.871094 Z M 631.234375 418.167969 C 628.773438 418 626.910156 415.863281 627.078125 413.402344 C 627.246094 410.933594 629.378906 409.078125 631.839844 409.246094 C 634.3125 409.414062 636.164062 411.539062 636 414.007812 C 635.832031 416.46875 633.703125 418.332031 631.234375 418.167969 Z M 631.234375 418.167969 " fill-opacity="1" fill-rule="nonzero"/></svg>