<svg xmlns="http://www.w3.org/2000/svg" xmlns:xlink="http://www.w3.org/1999/xlink" width="1080" zoomAndPan="magnify" viewBox="0 0 810 809.999993" height="1080" preserveAspectRatio="xMidYMid meet" version="1.0"><defs><filter x="0%" y="0%" width="100%" height="100%" id="61fb69ca00"><feColorMatrix values="0 0 0 0 1 0 0 0 0 1 0 0 0 0 1 0 0 0 1 0" color-interpolation-filters="sRGB"/></filter><mask id="8852a2b17a"><g filter="url(#61fb69ca00)"><rect x="-81" width="972" fill="#000000" y="-80.999999" height="971.999992" fill-opacity="0.5"/></g></mask><clipPath id="e04138fd0c"><path d="M 0 0 L 810 0 L 810 810 L 0 810 Z M 0 0 " clip-rule="nonzero"/></clipPath><clipPath id="a9805862a2"><path d="M 555.140625 0 L 810 254.863281 L 254.859375 810 L 0 555.140625 Z M 555.140625 0 " clip-rule="nonzero"/></clipPath><clipPath id="b5da99b6b4"><path d="M 0 0 L 810 0 L 810 810 L 0 810 Z M 0 0 " clip-rule="nonzero"/></clipPath><clipPath id="0ddf501f06"><path d="M 555.140625 0 L 810 254.863281 L 254.859375 810 L 0 555.140625 Z M 555.140625 0 " clip-rule="nonzero"/></clipPath><clipPath id="bb1953cbc4"><rect x="0" width="810" y="0" height="810"/></clipPath><clipPath id="244188a7d8"><rect x="0" width="810" y="0" height="810"/></clipPath></defs><g mask="url(#8852a2b17a)"><g transform="matrix(1, 0, 0, 1, 0, 0.000000000000039746)"><g clip-path="url(#244188a7d8)"><g clip-path="url(#e04138fd0c)"><g clip-path="url(#a9805862a2)"><g transform="matrix(1, 0, 0, 1, 0, 0.000000000000039746)"><g clip-path="url(#bb1953cbc4)"><g clip-path="url(#b5da99b6b4)"><g clip-path="url(#0ddf501f06)"><path fill="#073bd9" d="M 555.140625 0 L 810 254.863281 L 254.484375 810.378906 L -0.378906 555.519531 Z M 555.140625 0 " fill-opacity="1" fill-rule="nonzero"/></g></g></g></g></g></g></g></g></g></svg>