<svg xmlns="http://www.w3.org/2000/svg" xmlns:xlink="http://www.w3.org/1999/xlink" width="1080" zoomAndPan="magnify" viewBox="0 0 810 809.999993" height="1080" preserveAspectRatio="xMidYMid meet" version="1.0"><defs><filter x="0%" y="0%" width="100%" height="100%" id="a012131d0b"><feColorMatrix values="0 0 0 0 1 0 0 0 0 1 0 0 0 0 1 0 0 0 1 0" color-interpolation-filters="sRGB"/></filter><mask id="b5295e05ea"><g filter="url(#a012131d0b)"><rect x="-81" width="972" fill="#000000" y="-80.999999" height="971.999992" fill-opacity="0.5"/></g></mask><clipPath id="84b3a2634a"><path d="M 0 0 L 442.320312 0 L 442.320312 523 L 0 523 Z M 0 0 " clip-rule="nonzero"/></clipPath><clipPath id="e6ba5ff45a"><path d="M 222.339844 -227.117188 L 442.246094 -7.210938 L -87.828125 522.867188 L -307.738281 302.960938 Z M 222.339844 -227.117188 " clip-rule="nonzero"/></clipPath><clipPath id="f17243bb4e"><path d="M 0 0 L 442.320312 0 L 442.320312 522.960938 L 0 522.960938 Z M 0 0 " clip-rule="nonzero"/></clipPath><clipPath id="2deb6a7230"><path d="M 222.339844 -227.117188 L 442.246094 -7.210938 L -87.828125 522.867188 L -307.738281 302.960938 Z M 222.339844 -227.117188 " clip-rule="nonzero"/></clipPath><clipPath id="c99cd71cfb"><rect x="0" width="443" y="0" height="523"/></clipPath><clipPath id="68db80a35f"><rect x="0" width="443" y="0" height="524"/></clipPath><mask id="9720e34ab5"><g filter="url(#a012131d0b)"><rect x="-81" width="972" fill="#000000" y="-80.999999" height="971.999992" fill-opacity="0.5"/></g></mask><clipPath id="1b644a8137"><path d="M 0 0 L 384.960938 0 L 384.960938 424 L 0 424 Z M 0 0 " clip-rule="nonzero"/></clipPath><clipPath id="2084a67823"><path d="M 119.070312 -287.132812 L 384.792969 -21.410156 L -60.410156 423.789062 L -326.128906 158.070312 Z M 119.070312 -287.132812 " clip-rule="nonzero"/></clipPath><clipPath id="66b225a0ac"><path d="M 0 0 L 384.960938 0 L 384.960938 423.839844 L 0 423.839844 Z M 0 0 " clip-rule="nonzero"/></clipPath><clipPath id="370eb3194a"><path d="M 119.070312 -287.132812 L 384.792969 -21.410156 L -60.410156 423.789062 L -326.128906 158.070312 Z M 119.070312 -287.132812 " clip-rule="nonzero"/></clipPath><clipPath id="0cb180f23a"><rect x="0" width="385" y="0" height="424"/></clipPath><clipPath id="05d34b9f9e"><rect x="0" width="385" y="0" height="425"/></clipPath></defs><g mask="url(#b5295e05ea)"><g transform="matrix(1, 0, 0, 1, 0, 0.000000000000039746)"><g clip-path="url(#68db80a35f)"><g clip-path="url(#84b3a2634a)"><g clip-path="url(#e6ba5ff45a)"><g transform="matrix(1, 0, 0, 1, 0, 0.000000000000039746)"><g clip-path="url(#c99cd71cfb)"><g clip-path="url(#f17243bb4e)"><g clip-path="url(#2deb6a7230)"><path fill="#073bd9" d="M 222.339844 -227.117188 L 442.246094 -7.210938 L -87.765625 522.804688 L -307.671875 302.894531 Z M 222.339844 -227.117188 " fill-opacity="1" fill-rule="nonzero"/></g></g></g></g></g></g></g></g></g><g mask="url(#9720e34ab5)"><g transform="matrix(1, 0, 0, 1, 0, 0.000000000000039746)"><g clip-path="url(#05d34b9f9e)"><g clip-path="url(#1b644a8137)"><g clip-path="url(#2084a67823)"><g transform="matrix(1, 0, 0, 1, 0, 0.000000000000039746)"><g clip-path="url(#0cb180f23a)"><g clip-path="url(#66b225a0ac)"><g clip-path="url(#370eb3194a)"><path fill="#073bd9" d="M 119.070312 -287.132812 L 384.792969 -21.410156 L -60.5 423.882812 L -326.222656 158.160156 Z M 119.070312 -287.132812 " fill-opacity="1" fill-rule="nonzero"/></g></g></g></g></g></g></g></g></g></svg>