<svg xmlns="http://www.w3.org/2000/svg" xmlns:xlink="http://www.w3.org/1999/xlink" width="1080" zoomAndPan="magnify" viewBox="0 0 810 809.999993" height="1080" preserveAspectRatio="xMidYMid meet" version="1.0"><defs><filter x="0%" y="0%" width="100%" height="100%" id="5931d0e83e"><feColorMatrix values="0 0 0 0 1 0 0 0 0 1 0 0 0 0 1 0 0 0 1 0" color-interpolation-filters="sRGB"/></filter><mask id="4f59dca6e4"><g filter="url(#5931d0e83e)"><rect x="-81" width="972" fill="#000000" y="-80.999999" height="971.999992" fill-opacity="0.5"/></g></mask><clipPath id="ff6c93c3cb"><path d="M 0.238281 0.398438 L 608 0.398438 L 608 298 L 0.238281 298 Z M 0.238281 0.398438 " clip-rule="nonzero"/></clipPath><clipPath id="82c432cb0b"><path d="M 297.800781 0.4375 L 607.234375 309.867188 L 309.851562 607.25 L 0.421875 297.816406 Z M 297.800781 0.4375 " clip-rule="nonzero"/></clipPath><clipPath id="a7a320cb56"><path d="M 0.238281 0.398438 L 607 0.398438 L 607 298 L 0.238281 298 Z M 0.238281 0.398438 " clip-rule="nonzero"/></clipPath><clipPath id="5efe5288cd"><path d="M 297.800781 0.4375 L 607.234375 309.867188 L 309.851562 607.25 L 0.421875 297.816406 Z M 297.800781 0.4375 " clip-rule="nonzero"/></clipPath><clipPath id="ed8c19a615"><rect x="0" width="608" y="0" height="298"/></clipPath><clipPath id="294465fa36"><rect x="0" width="609" y="0" height="298"/></clipPath><mask id="a7a0e4cfa6"><g filter="url(#5931d0e83e)"><rect x="-81" width="972" fill="#000000" y="-80.999999" height="971.999992" fill-opacity="0.5"/></g></mask><clipPath id="0432ae5893"><path d="M 0.398438 0.160156 L 608 0.160156 L 608 232 L 0.398438 232 Z M 0.398438 0.160156 " clip-rule="nonzero"/></clipPath><clipPath id="60d58efd91"><path d="M 297.972656 0.273438 L 607.402344 309.703125 L 310.023438 607.085938 L 0.589844 297.652344 Z M 297.972656 0.273438 " clip-rule="nonzero"/></clipPath><clipPath id="c2334aaa66"><path d="M 0.398438 0.160156 L 607 0.160156 L 607 232 L 0.398438 232 Z M 0.398438 0.160156 " clip-rule="nonzero"/></clipPath><clipPath id="54a00d69b3"><path d="M 297.972656 0.273438 L 607.402344 309.703125 L 310.023438 607.085938 L 0.589844 297.652344 Z M 297.972656 0.273438 " clip-rule="nonzero"/></clipPath><clipPath id="39c8646fc6"><rect x="0" width="608" y="0" height="232"/></clipPath><clipPath id="b2be547cc2"><rect x="0" width="609" y="0" height="232"/></clipPath></defs><g mask="url(#4f59dca6e4)"><g transform="matrix(1, 0, 0, 1, 12, 512)"><g clip-path="url(#294465fa36)"><g clip-path="url(#ff6c93c3cb)"><g clip-path="url(#82c432cb0b)"><g transform="matrix(1, 0, 0, 1, 0.000000000000001776, 0)"><g clip-path="url(#ed8c19a615)"><g clip-path="url(#a7a320cb56)"><g clip-path="url(#5efe5288cd)"><path fill="#073bd9" d="M 297.800781 0.4375 L 606.800781 309.433594 L 309.417969 606.8125 L 0.421875 297.816406 Z M 297.800781 0.4375 " fill-opacity="1" fill-rule="nonzero"/></g></g></g></g></g></g></g></g></g><g mask="url(#a7a0e4cfa6)"><g transform="matrix(1, 0, 0, 1, 134, 578)"><g clip-path="url(#b2be547cc2)"><g clip-path="url(#0432ae5893)"><g clip-path="url(#60d58efd91)"><g transform="matrix(1, 0, 0, 1, 0.000000000000028422, 0.000000000000113687)"><g clip-path="url(#39c8646fc6)"><g clip-path="url(#c2334aaa66)"><g clip-path="url(#54a00d69b3)"><path fill="#073bd9" d="M 297.972656 0.273438 L 606.96875 309.269531 L 309.589844 606.648438 L 0.589844 297.652344 Z M 297.972656 0.273438 " fill-opacity="1" fill-rule="nonzero"/></g></g></g></g></g></g></g></g></g></svg>