<svg xmlns="http://www.w3.org/2000/svg" xmlns:xlink="http://www.w3.org/1999/xlink" width="1080" zoomAndPan="magnify" viewBox="0 0 810 809.999993" height="1080" preserveAspectRatio="xMidYMid meet" version="1.0"><defs><filter x="0%" y="0%" width="100%" height="100%" id="9d682ed171"><feColorMatrix values="0 0 0 0 1 0 0 0 0 1 0 0 0 0 1 0 0 0 1 0" color-interpolation-filters="sRGB"/></filter><mask id="3cb951eb5a"><g filter="url(#9d682ed171)"><rect x="-81" width="972" fill="#000000" y="-80.999999" height="971.999992" fill-opacity="0.5"/></g></mask><clipPath id="2e78f58a22"><path d="M 0 0 L 437.761719 0 L 437.761719 511 L 0 511 Z M 0 0 " clip-rule="nonzero"/></clipPath><clipPath id="dd2f507bca"><path d="M 226.277344 -231.085938 L 437.59375 -19.773438 L -92.640625 510.460938 L -303.953125 299.148438 Z M 226.277344 -231.085938 " clip-rule="nonzero"/></clipPath><clipPath id="104d9e5a66"><path d="M 0 0 L 437.761719 0 L 437.761719 510.480469 L 0 510.480469 Z M 0 0 " clip-rule="nonzero"/></clipPath><clipPath id="bd0fcec75f"><path d="M 226.277344 -231.085938 L 437.59375 -19.773438 L -92.640625 510.460938 L -303.953125 299.148438 Z M 226.277344 -231.085938 " clip-rule="nonzero"/></clipPath><clipPath id="c1ad8a52c0"><rect x="0" width="438" y="0" height="511"/></clipPath><clipPath id="cc37a402c2"><rect x="0" width="438" y="0" height="512"/></clipPath><mask id="74f17ae7f8"><g filter="url(#9d682ed171)"><rect x="-81" width="972" fill="#000000" y="-80.999999" height="971.999992" fill-opacity="0.5"/></g></mask><clipPath id="7ed575c5f1"><path d="M 0 0 L 343.921875 0 L 343.921875 282.960938 L 0 282.960938 Z M 0 0 " clip-rule="nonzero"/></clipPath><clipPath id="81cff78426"><path d="M 178.386719 -242.820312 L 343.707031 -77.503906 L -16.394531 282.59375 L -181.710938 117.277344 Z M 178.386719 -242.820312 " clip-rule="nonzero"/></clipPath><clipPath id="7ffecb8f7b"><path d="M 0 0 L 343.921875 0 L 343.921875 282.71875 L 0 282.71875 Z M 0 0 " clip-rule="nonzero"/></clipPath><clipPath id="92dc2ee014"><path d="M 178.386719 -242.820312 L 343.707031 -77.503906 L -16.394531 282.59375 L -181.710938 117.277344 Z M 178.386719 -242.820312 " clip-rule="nonzero"/></clipPath><clipPath id="0b54d83bd2"><rect x="0" width="344" y="0" height="283"/></clipPath><clipPath id="476cf0f82a"><rect x="0" width="344" y="0" height="283"/></clipPath></defs><g mask="url(#3cb951eb5a)"><g transform="matrix(1, 0, 0, 1, 0, 0.000000000000039746)"><g clip-path="url(#cc37a402c2)"><g clip-path="url(#2e78f58a22)"><g clip-path="url(#dd2f507bca)"><g transform="matrix(1, 0, 0, 1, 0, 0.000000000000039746)"><g clip-path="url(#c1ad8a52c0)"><g clip-path="url(#104d9e5a66)"><g clip-path="url(#bd0fcec75f)"><path fill="#073bd9" d="M 226.277344 -231.085938 L 437.59375 -19.773438 L -92.34375 510.160156 L -303.65625 298.847656 Z M 226.277344 -231.085938 " fill-opacity="1" fill-rule="nonzero"/></g></g></g></g></g></g></g></g></g><g mask="url(#74f17ae7f8)"><g transform="matrix(1, 0, 0, 1, 0, 0.000000000000039746)"><g clip-path="url(#476cf0f82a)"><g clip-path="url(#7ed575c5f1)"><g clip-path="url(#81cff78426)"><g transform="matrix(1, 0, 0, 1, 0, 0.000000000000039746)"><g clip-path="url(#0b54d83bd2)"><g clip-path="url(#7ffecb8f7b)"><g clip-path="url(#92dc2ee014)"><path fill="#073bd9" d="M 178.386719 -242.820312 L 343.707031 -77.503906 L -16.636719 282.839844 L -181.953125 117.519531 Z M 178.386719 -242.820312 " fill-opacity="1" fill-rule="nonzero"/></g></g></g></g></g></g></g></g></g></svg>