<?xml version="1.0" encoding="UTF-8"?>
<svg id="Camada_4" data-name="Camada 4" xmlns="http://www.w3.org/2000/svg" viewBox="0 0 16 16">
  <defs>
    <style>
      .cls-1 {
        fill: #fff;
      }
    </style>
  </defs>
  <circle cx="8" cy="8" r="7.81"/>
  <path class="cls-1" d="M9.68,4.92v1c0,.07.12.1.16.03l.19-.52,3.87-.02-1.86,4.56-1.13.09.66-1.65-2.23-1.69-1.38.27c.12-.21.14-.27.14-.5,0-.84-.72-1.54-1.64-1.54-.92,0-1.68.69-1.68,1.54,0,.46.3.99.65,1.27l-4.25,2.13,7.65-.82v.29s-4.65,1.75-4.65,1.75l8.23-.7,2.41-5.52-5.14.03ZM5.15,8.87c-.15,0-.27-.11-.27-.25,0-.14.12-.25.27-.25.15,0,.27.11.27.25,0,.14-.12.25-.27.25Z"/>
</svg>