<?xml version="1.0" encoding="UTF-8"?>
<svg id="Camada_4" data-name="Camada 4" xmlns="http://www.w3.org/2000/svg" viewBox="0 0 1080 1080">
  <g>
    <path d="M99.09,532.11h68.11l-.08,14.83h-53.52l-.19,33.32,48.75-18.54-.08,14.88-63.38,24.72.39-69.22Z"/>
    <path d="M167.15,532.11h63.2l-.29,69.22-63.18-19.83.28-49.39ZM181.49,570.23l34.05,9.89.18-33.17h-34.06l-.18,23.29Z"/>
    <path d="M230.4,532.11h68.11l-.21,38.02h-40.43l51.99,20.32-14.32,10.88-60.54-23.19.13-23.24h48.65l.04-7.96-53.52.05.08-14.88Z"/>
    <path d="M303.37,532.11h63.25l-.19,34.61-48.7,8.85-.12,20.81-14.62,4.94.22-39.55,48.69-6.87.04-7.96h-48.65l.08-14.83Z"/>
    <path d="M371.48,532.11h63.2l-.29,69.22-63.18-19.83.28-49.39ZM385.82,570.23l34.05,9.89.18-33.17h-34.06l-.18,23.29Z"/>
    <path d="M434.73,532.11h68.11l-.21,38.02h-40.43l51.99,20.32-14.32,10.88-60.54-23.19.13-23.24h48.65l.04-7.96-53.52.05.08-14.88Z"/>
    <path d="M570.57,601.33l-14.54-9.89.12-21.26h-34.06l-.15,26.2-14.62,4.94.39-69.22h63.25l-.39,69.22ZM522.22,546.94l-.05,8.26h34.06l.05-8.26h-34.06Z"/>
    <path d="M575.82,532.11h68.11l-.08,14.83h-53.52l-.19,33.32,48.75-18.54-.08,14.88-63.38,24.72.39-69.22Z"/>
    <path d="M706.74,601.33l-14.54-9.89.12-21.26h-34.06l-.15,26.2-14.62,4.94.39-69.22h63.25l-.39,69.22ZM658.39,546.94l-.05,8.26h34.06l.05-8.26h-34.06Z"/>
    <path d="M711.99,532.11h63.2l-.29,69.22-63.18-19.83.28-49.39ZM726.32,570.23l34.05,9.89.18-33.17h-34.06l-.18,23.29Z"/>
  </g>
  <path d="M885.18,488.72l-1.29,21.49c-.09,1.51,1.87,2.17,2.71.91l5.37-11.63,71.49-1.04-40.49,89.84-21.22.32,14.45-32.42-39.32-37.44-25.97,3.56c2.49-4.02,2.9-5.22,3.24-10.03,1.23-17.08-11.46-32.21-28.54-33.52-17.22-1.32-32.17,11.64-33.34,28.83-.64,9.39,4.27,20.44,10.49,26.56l-81.9,37.17,143.42-5.88-.39,5.8-88.77,28.91,154.09-2.52,52.11-108.38-96.12-.54ZM796.14,556.18c-2.8-.19-4.92-2.62-4.73-5.42.19-2.81,2.62-4.92,5.42-4.73,2.81.19,4.92,2.61,4.73,5.42-.19,2.8-2.61,4.92-5.42,4.73Z"/>
</svg>